<svg width="50" height="48" viewBox="0 0 50 48" fill="none" xmlns="http://www.w3.org/2000/svg">
<path d="M1.09543 18.2329L25 0.865247L48.9046 18.2329L39.7738 46.3344H10.2262L1.09543 18.2329Z" stroke="#F16178" stroke-width="1.4"/>
<g clip-path="url(#clip0_3405_23476)">
<path fill-rule="evenodd" clip-rule="evenodd" d="M24.4153 25.6272C24.6239 25.6711 24.8364 25.6932 25.0494 25.6931C25.6627 25.7056 26.2649 25.5261 26.7749 25.179C26.9178 25.076 27.054 24.9637 27.1826 24.8428L27.4134 24.6231C28.151 23.9089 28.6816 23.3948 28.5781 22.1467C28.5719 22.064 28.5924 21.9815 28.6363 21.9116C28.6895 21.8295 28.7726 21.7723 28.8672 21.7525C28.9619 21.7327 29.0603 21.752 29.141 21.8062C29.1835 21.8348 29.2291 21.8584 29.2769 21.8765C29.3088 21.889 29.3421 21.8971 29.3761 21.9006C29.4365 21.9006 29.4343 21.927 29.4451 21.9182C29.4559 21.9094 29.4451 21.8853 29.4732 21.8215L29.8312 20.78C29.8682 20.6721 29.8764 20.5561 29.8549 20.4439C29.8511 20.428 29.8419 20.414 29.829 20.4043C29.7865 20.3876 29.7404 20.3823 29.6953 20.3889C29.5263 20.411 29.3666 20.4802 29.2337 20.5889C29.1933 20.6202 29.147 20.6428 29.0977 20.6553C29.0483 20.6678 28.997 20.6698 28.9469 20.6614C28.8988 20.6529 28.8528 20.6348 28.8117 20.608C28.7705 20.5812 28.7351 20.5464 28.7074 20.5054C28.6796 20.4645 28.6602 20.4183 28.6502 20.3696C28.6403 20.321 28.6399 20.2708 28.6492 20.2219C28.9124 18.6509 28.7937 17.6292 28.4681 16.937C28.2117 16.415 27.7983 15.9901 27.2883 15.7241C26.5187 16.3476 25.58 16.7157 24.5987 16.7788C23.8364 16.8272 23.1021 17.0888 22.4763 17.5347C22.1165 17.771 21.8411 18.1193 21.6912 18.5278C21.5521 18.983 21.5416 19.4688 21.661 19.9297C21.6763 19.9957 21.6738 20.0647 21.6538 20.1293C21.6337 20.194 21.5969 20.2519 21.5471 20.297C21.4974 20.342 21.4366 20.3725 21.3712 20.3852C21.3058 20.3979 21.2382 20.3924 21.1757 20.3692L20.9147 20.2725C20.6322 20.1714 20.4294 20.1209 20.3583 20.2615C20.3168 20.6284 20.3365 20.9999 20.4165 21.3601C20.4456 21.5506 20.5413 21.7238 20.6861 21.8479C20.7232 21.8684 20.7647 21.879 20.8069 21.8787C20.88 21.8773 20.9526 21.8655 21.0226 21.8435C21.0572 21.8311 21.0937 21.8244 21.1304 21.8237C21.1783 21.8226 21.2259 21.831 21.2706 21.8486C21.3152 21.8662 21.3561 21.8926 21.3907 21.9263C21.4254 21.9599 21.4532 22.0002 21.4725 22.0448C21.4919 22.0895 21.5024 22.1375 21.5036 22.1863C21.5337 23.4607 22.0924 23.9441 22.7718 24.5462L23.0587 24.8032C23.4493 25.1727 23.9124 25.4536 24.4175 25.6272H24.4153ZM24.9998 33.1265C25.33 33.1265 25.6528 33.2262 25.9273 33.4131C26.2018 33.6 26.4158 33.8656 26.5422 34.1763C26.6685 34.4871 26.7016 34.829 26.6372 35.1589C26.5727 35.4888 26.4138 35.7919 26.1803 36.0297C25.9468 36.2676 25.6493 36.4295 25.3255 36.4952C25.0017 36.5608 24.666 36.5271 24.361 36.3984C24.0559 36.2697 23.7952 36.0517 23.6118 35.772C23.4283 35.4923 23.3304 35.1635 23.3304 34.8272C23.331 34.3763 23.5071 33.9441 23.82 33.6252C24.133 33.3064 24.5572 33.1271 24.9998 33.1265ZM27.6743 25.3833L27.8145 25.5899C28.0302 25.9085 28.2696 26.271 28.4939 26.5545C29.829 27.3982 32.7624 27.6267 33.9098 28.2771C36.8302 29.936 35.7647 33.9636 35.9761 36.864C35.9114 37.5496 35.5296 37.9407 34.7812 38H33.9702L34.8588 31.1292C34.8796 31.013 34.8757 30.8936 34.8473 30.7792C34.819 30.6647 34.7669 30.5577 34.6945 30.4655C34.6222 30.3732 34.5312 30.2978 34.4279 30.2444C34.3245 30.191 34.2111 30.1608 34.0953 30.1558H25.373C25.6469 28.1145 28.1014 28.1035 28.1618 27.1499C27.8511 26.7686 27.563 26.3687 27.299 25.9524L27.1977 25.7986C26.6169 26.2449 25.9106 26.4891 25.1832 26.4951C24.2948 26.4648 23.4439 26.1234 22.7739 25.5283C22.6189 26.0654 22.4017 26.5817 22.1269 27.0664C22.1056 27.0951 22.0801 27.1203 22.0514 27.1411C22.1528 27.9805 24.9761 29.0527 25.1465 30.1646H16.0488C15.9347 30.1709 15.8231 30.2018 15.7215 30.2553C15.6198 30.3087 15.5304 30.3834 15.4591 30.4745C15.3878 30.5656 15.3363 30.671 15.3078 30.7838C15.2793 30.8966 15.2746 31.0143 15.2939 31.1292L16.1826 38H15.363C14.6145 37.9407 14.2328 37.5606 14.1702 36.864C14.209 33.7879 13.0637 30.0789 16.2365 28.2771C17.399 27.6179 20.3949 27.3982 21.702 26.5193C21.9169 26.0472 22.0992 25.5604 22.2477 25.0625C21.5273 24.4319 20.9298 23.8848 20.7961 22.6126C20.6327 22.6109 20.4724 22.567 20.3302 22.4851C20.1706 22.3788 20.0334 22.241 19.9267 22.0799C19.82 21.9187 19.746 21.7375 19.709 21.5469C19.6033 21.075 19.5806 20.5877 19.6422 20.1077C19.6468 20.0768 19.6547 20.0466 19.6659 20.0176C19.8169 19.5781 20.0369 19.4177 20.313 19.3914L20.231 19.3364C20.1188 17.917 20.4467 15.4539 18.9369 14.988C21.8055 11.3735 25.1055 9.41139 27.5881 12.6194C30.5322 12.7776 31.7379 17.4885 29.4775 19.5693L29.4667 19.6594C29.525 19.6465 29.5841 19.6377 29.6436 19.6331C29.8265 19.6149 30.0107 19.6508 30.1741 19.7363C30.2648 19.7847 30.345 19.8511 30.4102 19.9314C30.4754 20.0118 30.5242 20.1046 30.5537 20.2044C30.621 20.457 30.615 20.7241 30.5365 20.9734L30.1634 22.0523C30.1228 22.2226 30.0316 22.376 29.9024 22.4917C29.7406 22.6113 29.5396 22.6625 29.3416 22.6345H29.3136C29.2683 23.8386 28.6837 24.4055 27.9073 25.157L27.6786 25.3767L27.6657 25.3899L27.6743 25.3833Z" class="hover-white" fill="#F16178"/>
</g>
<defs>
<filter id="filterxx0e" x="-44" y="-41" width="456" height="138" filterUnits="userSpaceOnUse" color-interpolation-filters="sRGB">
<feFlood flood-opacity="0" result="BackgroundImageFix"/>
<feColorMatrix in="SourceAlpha" type="matrix" values="0 0 0 0 0 0 0 0 0 0 0 0 0 0 0 0 0 0 127 0" result="hardAlpha"/>
<feMorphology radius="1" operator="dilate" in="SourceAlpha" result="effect1_dropShadow_3405_23476"/>
<feOffset dy="2"/>
<feGaussianBlur stdDeviation="7"/>
<feColorMatrix type="matrix" values="0 0 0 0 0 0 0 0 0 0 0 0 0 0 0 0 0 0 0.06 0"/>
<feBlend mode="normal" in2="BackgroundImageFix" result="effect1_dropShadow_3405_23476"/>
<feBlend mode="normal" in="SourceGraphic" in2="effect1_dropShadow_3405_23476" result="shape"/>
</filter>
<clipPath id="clip0_3405_23476">
<rect width="22" height="27" fill="white" transform="translate(14 11)"/>
</clipPath>
</defs>
</svg>
