<svg width="36" height="36" viewBox="0 0 36 36" fill="none" xmlns="http://www.w3.org/2000/svg">
<g clip-path="url(#clip0_3405_29949)">
<path d="M35.4602 22.3565C33.0576 31.9983 23.289 37.8667 13.6442 35.4605C3.99948 33.0542 -1.86618 23.2905 0.540242 13.6477C2.94666 4.00493 12.7104 -1.86613 22.353 0.540472C31.9956 2.94707 37.8667 12.7113 35.4602 22.3565Z" fill="#BE1AF7"/>
<path d="M25.0678 13.2947C24.7935 10.8884 22.6986 10.1166 20.0672 9.93243L20.0099 6.58884L17.9741 6.62484L18.0296 9.88061C17.495 9.89004 16.9483 9.90945 16.4053 9.93046L16.3472 6.65378L14.3134 6.68926L14.3727 10.031L10.2693 10.109L10.3076 12.2829C10.3076 12.2829 11.8102 12.228 11.7857 12.2562C12.6101 12.2421 12.8872 12.7158 12.9722 13.1276L13.1317 22.2868C13.1 22.5468 12.9547 22.9629 12.3786 22.9731C12.4052 22.9958 10.8987 22.9969 10.8987 22.9969L10.5375 25.4378L14.6399 25.3784L14.6997 28.7604L16.7326 28.7252L16.6746 25.3792C17.2341 25.3806 17.7732 25.3759 18.3002 25.3662L18.3575 28.6968L20.3928 28.6609L20.3346 25.2849C23.7531 25.0286 26.1333 24.1248 26.3738 20.9088C26.5687 18.3175 25.3322 17.1842 23.3814 16.7513C24.5507 16.1286 25.2699 15.0574 25.0666 13.2963L25.0678 13.2947ZM22.3452 20.5761C22.3888 23.1034 18.0582 22.8917 16.6781 22.9168L16.6005 18.4363C17.9801 18.4125 22.2983 17.9404 22.3458 20.5755L22.3452 20.5761ZM21.2901 14.271C21.3298 16.571 17.716 16.3654 16.5664 16.3853L16.4941 12.321C17.6441 12.3013 21.2472 11.8729 21.2887 14.2712" fill="white"/>
</g>
<defs>
<clipPath id="clip0_3405_29949">
<rect width="36" height="36" fill="white"/>
</clipPath>
</defs>
</svg>
