<svg width="31" height="20" viewBox="0 0 31 20" fill="none" xmlns="http://www.w3.org/2000/svg">
<path fill-rule="evenodd" clip-rule="evenodd" d="M28.1433 15.2029H22.5469V16.6112H28.1433V15.2029ZM9.21164 11.5097C8.39256 11.5097 7.67031 11.8994 7.21437 12.5162C6.75843 11.9034 6.02812 11.5097 5.205 11.5097C3.82103 11.5097 2.71144 12.6339 2.71144 14.0179C2.71144 15.4099 3.8291 16.5382 5.205 16.5382C6.02408 16.5382 6.75843 16.1364 7.21437 15.5235C7.67031 16.1364 8.39659 16.5382 9.21164 16.5382C10.5916 16.5382 11.7173 15.4099 11.7173 14.0179C11.7173 12.6299 10.5916 11.5097 9.21164 11.5097ZM1.71886 18.9976C1.52115 18.9976 1.33958 18.9123 1.2145 18.7784C1.08135 18.6526 0.992582 18.474 0.992582 18.2711V8.69318H30.0074V18.2711C30.0074 18.47 29.9308 18.6526 29.7976 18.7784C29.6645 18.9123 29.4829 18.9976 29.2852 18.9976C20.0211 18.9976 10.983 18.9976 1.71886 18.9976ZM29.2852 19.9919C29.7613 19.9919 30.193 19.8011 30.4956 19.4805C30.8063 19.1721 31 18.7459 31 18.267V1.72484C31 1.25406 30.8104 0.823864 30.5037 0.507305C30.193 0.194805 29.7613 0 29.2852 0H1.71886C1.25082 0 0.811013 0.190747 0.508396 0.507305C0.19771 0.811688 0 1.25406 0 1.72484V18.2752C0 18.7419 0.189641 19.1761 0.508396 19.4886C0.811013 19.7971 1.25082 20 1.71886 20C10.9951 19.9919 20.013 19.9919 29.2852 19.9919ZM30.0115 3.72159H0.992582V1.71672C0.992582 1.52597 1.07731 1.34334 1.2145 1.20941C1.34765 1.07549 1.52519 0.986201 1.71886 0.986201H29.2892C29.4869 0.986201 29.6685 1.07143 29.8016 1.20941C29.9348 1.34334 30.0115 1.52191 30.0115 1.71672V3.72159ZM20.5658 15.2029H14.8685V16.6112H20.5618V15.2029H20.5658Z" fill="white"/>
</svg>
