<svg width="17" height="17" viewBox="0 0 17 17" fill="none" xmlns="http://www.w3.org/2000/svg">
<path d="M5.28571 5.28571V2.07143C5.28571 1.47969 5.76541 1 6.35714 1H14.9286C15.5203 1 16 1.47969 16 2.07143V10.6429C16 11.2346 15.5203 11.7143 14.9286 11.7143H11.7143M5.28571 5.28571H2.07143C1.47969 5.28571 1 5.76541 1 6.35714V14.9286C1 15.5203 1.4797 16 2.07143 16H10.6429C11.2346 16 11.7143 15.5203 11.7143 14.9286V11.7143M5.28571 5.28571V7.96429M5.28571 5.28571H7.96429M11.7143 11.7143H9.03571M11.7143 11.7143V9.03571M9.03571 5.28571H11.7143V7.96429M5.28571 9.03571V11.7143H7.96429" stroke="#1D1929" stroke-width="2"/>
</svg>
