<svg width="20" height="27" viewBox="0 0 20 27" fill="none" xmlns="http://www.w3.org/2000/svg">
<path fill-rule="evenodd" clip-rule="evenodd" d="M19.7297 10.5265C20.1413 7.77517 18.0464 6.29612 15.182 5.30945L16.1112 1.58243L13.8426 1.01705L12.9379 4.64585C12.3415 4.49723 11.729 4.35702 11.1203 4.21809L12.0314 0.565385L9.76403 0L8.83422 3.72572C8.34055 3.61329 7.85594 3.50215 7.38554 3.3852L7.38812 3.37357L4.25945 2.59237L3.65594 5.01545C3.65594 5.01545 5.33917 5.4012 5.30363 5.42511C6.22246 5.65449 6.38852 6.26252 6.36074 6.74455L5.30234 10.9904C5.36566 11.0066 5.44772 11.0298 5.53818 11.066L5.46122 11.0468L5.46099 11.0468C5.40848 11.0336 5.35404 11.0199 5.29846 11.0066L3.81489 16.9544C3.70246 17.2336 3.41751 17.6523 2.77523 17.4933C2.79785 17.5263 1.12625 17.0817 1.12625 17.0817L0 19.6786L2.95228 20.4146C3.28192 20.4972 3.6076 20.5821 3.92989 20.6662L3.93003 20.6662L3.93009 20.6662C4.14471 20.7222 4.35783 20.7778 4.5696 20.832L3.63074 24.6017L5.8968 25.167L6.82662 21.4374C7.44563 21.6054 8.04655 21.7605 8.63455 21.9066L7.70797 25.6187L9.97661 26.1841L10.9155 22.4215C14.784 23.1536 17.693 22.8583 18.9174 19.3594C19.9041 16.5422 18.8683 14.9171 16.833 13.8574C18.3152 13.5156 19.4318 12.5406 19.7297 10.5265ZM14.5462 17.7951C13.903 20.3798 9.85728 19.3112 8.00615 18.8223L8.00609 18.8222C7.83957 18.7783 7.6908 18.739 7.56388 18.7074L8.80966 13.7133C8.96423 13.7519 9.15307 13.7943 9.367 13.8423L9.36704 13.8423C11.2816 14.2719 15.2053 15.1523 14.5462 17.7951ZM9.75171 11.5247C11.2951 11.9365 14.6615 12.8349 15.2479 10.4858C15.8468 8.08294 12.5748 7.35861 10.9769 7.00486C10.7971 6.96507 10.6385 6.92997 10.509 6.89769L9.37957 11.4272C9.48626 11.4538 9.61146 11.4872 9.75171 11.5247Z" fill="white"/>
</svg>
