<svg width="50" height="48" viewBox="0 0 50 48" fill="none" xmlns="http://www.w3.org/2000/svg">
<path d="M0.860317 18.1565L25 0.618033L49.1397 18.1565L39.9191 46.5344H10.0809L0.860317 18.1565Z" stroke="#F16178"/>
<path class="hover-white" fill-rule="evenodd" clip-rule="evenodd" d="M18.7204 28.8871C19.5018 28.1057 20.5616 27.6667 21.6667 27.6667H28.3333C29.4384 27.6667 30.4982 28.1057 31.2796 28.8871C32.061 29.6685 32.5 30.7283 32.5 31.8333V33.5C32.5 33.9602 32.1269 34.3333 31.6667 34.3333C31.2064 34.3333 30.8333 33.9602 30.8333 33.5V31.8333C30.8333 31.1703 30.5699 30.5344 30.1011 30.0656C29.6323 29.5967 28.9964 29.3333 28.3333 29.3333H21.6667C21.0036 29.3333 20.3677 29.5967 19.8989 30.0656C19.4301 30.5344 19.1667 31.1703 19.1667 31.8333V33.5C19.1667 33.9602 18.7936 34.3333 18.3333 34.3333C17.8731 34.3333 17.5 33.9602 17.5 33.5V31.8333C17.5 30.7283 17.939 29.6685 18.7204 28.8871Z" fill="#F16178"/>
<path class="hover-white" fill-rule="evenodd" clip-rule="evenodd" d="M25.0002 19.3333C23.6195 19.3333 22.5002 20.4526 22.5002 21.8333C22.5002 23.214 23.6195 24.3333 25.0002 24.3333C26.3809 24.3333 27.5002 23.214 27.5002 21.8333C27.5002 20.4526 26.3809 19.3333 25.0002 19.3333ZM20.8335 21.8333C20.8335 19.5321 22.699 17.6667 25.0002 17.6667C27.3013 17.6667 29.1668 19.5321 29.1668 21.8333C29.1668 24.1345 27.3013 26 25.0002 26C22.699 26 20.8335 24.1345 20.8335 21.8333Z" fill="#F16178"/>
<defs>
<filter id="dakajdnmx" x="-44" y="-39" width="456" height="138" filterUnits="userSpaceOnUse" color-interpolation-filters="sRGB">
<feFlood flood-opacity="0" result="BackgroundImageFix"/>
<feColorMatrix in="SourceAlpha" type="matrix" values="0 0 0 0 0 0 0 0 0 0 0 0 0 0 0 0 0 0 127 0" result="hardAlpha"/>
<feMorphology radius="1" operator="dilate" in="SourceAlpha" result="effect1_dropShadow_3405_23476"/>
<feOffset dy="4"/>
<feGaussianBlur stdDeviation="7"/>
<feColorMatrix type="matrix" values="0 0 0 0 0 0 0 0 0 0 0 0 0 0 0 0 0 0 0.04 0"/>
<feBlend mode="normal" in2="BackgroundImageFix" result="effect1_dropShadow_3405_23476"/>
<feBlend mode="normal" in="SourceGraphic" in2="effect1_dropShadow_3405_23476" result="shape"/>
</filter>
</defs>
</svg>
