<svg width="13" height="12" viewBox="0 0 13 12" fill="none" xmlns="http://www.w3.org/2000/svg">
<path fill-rule="evenodd" clip-rule="evenodd" d="M12.9888 1.6763C12.9888 2.22556 12.522 2.6749 11.9515 2.6749H9.75444C9.90859 2.37761 9.99544 2.04223 9.99544 1.6873C9.99544 1.3236 9.90435 0.980377 9.74291 0.677689H11.9515C12.522 0.677689 12.9888 1.12704 12.9888 1.6763ZM9.44806 10.3127C9.44806 11.2446 8.66328 12 7.69526 12C6.72725 12 5.94257 11.2446 5.94257 10.3127C5.94257 9.38091 6.72725 8.62541 7.69526 8.62541C8.66328 8.62541 9.44806 9.38081 9.44806 10.3127ZM12.9988 10.3016C12.9988 10.8509 12.532 11.3002 11.9614 11.3002H9.75444C9.90859 11.0029 9.99544 10.6675 9.99544 10.3127C9.99544 9.94901 9.90435 9.60579 9.74291 9.3031H11.9614C12.5321 9.3031 12.9988 9.75244 12.9988 10.3016ZM5.63587 11.3002H1.03848C0.467928 11.3002 0.00116374 10.8509 0.00116374 10.3016C0.00116374 9.75234 0.467928 9.30299 1.03848 9.30299H5.6474C5.48607 9.60568 5.39487 9.94891 5.39487 10.3126C5.39487 10.6675 5.48173 11.0029 5.63587 11.3002ZM2.99673 5.98014C2.99673 6.91194 3.78151 7.66744 4.74953 7.66744C5.71744 7.66744 6.50222 6.91194 6.50222 5.98014C6.50222 5.04824 5.71744 4.29274 4.74953 4.29274C3.78151 4.29264 2.99673 5.04814 2.99673 5.98014ZM0 5.96904C0 6.5183 0.466976 6.96765 1.03731 6.96765H2.69564C2.5415 6.67025 2.45464 6.33935 2.45464 5.98014C2.45464 5.62082 2.54573 5.27322 2.70717 4.97043H1.03731C0.466764 4.97043 0 5.41978 0 5.96904ZM6.8141 6.96765H11.9627C12.5331 6.96765 13 6.5183 13 5.96904C13 5.41968 12.5332 4.97033 11.9627 4.97033H6.80268C6.96401 5.27312 7.05521 5.62072 7.05521 5.98004C7.05521 6.33935 6.96825 6.67025 6.8141 6.96765ZM9.44806 1.6873C9.44806 2.61919 8.66328 3.37459 7.69526 3.37459C6.72725 3.37459 5.94246 2.6193 5.94246 1.6873C5.94246 0.755398 6.72714 0 7.69516 0C8.66318 0 9.44806 0.755398 9.44806 1.6873ZM5.63587 2.6749H1.04239C0.471842 2.6749 0.00507813 2.22545 0.00507813 1.6763C0.00507813 1.12704 0.471842 0.677689 1.04239 0.677689H5.6474C5.48607 0.980377 5.39487 1.3236 5.39487 1.6873C5.39487 2.04223 5.48173 2.37761 5.63587 2.6749Z" fill="white"/>
</svg>
