<svg width="12" height="12" viewBox="0 0 12 12" fill="none" xmlns="http://www.w3.org/2000/svg">
<path fill-rule="evenodd" clip-rule="evenodd" d="M0.800781 1.2C0.800781 0.537258 1.33804 0 2.00078 0H8.56647L11.2008 2.63431V10.8C11.2008 11.4627 10.6635 12 10.0008 12H2.00078C1.33804 12 0.800781 11.4627 0.800781 10.8V1.2ZM1.60078 4.8H4.00078V5.6H2.40078V8H4.00078V8.8H1.60078V4.8ZM7.20078 4.8H4.80078V7.2H6.40078V8H4.80078V8.8H7.20078V6.4H5.60078V5.6H7.20078V4.8ZM8.80078 4.8H8.00078V7.76569L9.20078 8.96569L10.4008 7.76569V4.8H9.60078V7.43431L9.20078 7.83431L8.80078 7.43431V4.8Z" fill="white"/>
</svg>
