<svg width="14" height="14" viewBox="0 0 14 14" fill="none" xmlns="http://www.w3.org/2000/svg">
<path fill-rule="evenodd" clip-rule="evenodd" d="M9.91667 4.95833H10.5C11.1417 4.95833 11.6667 5.48333 11.6667 6.125V11.9583C11.6667 12.6 11.1417 13.125 10.5 13.125H3.5C2.85833 13.125 2.33333 12.6 2.33333 11.9583V6.125C2.33333 5.48333 2.85833 4.95833 3.5 4.95833H4.08333V3.79167C4.08333 2.18167 5.39 0.875 7 0.875C8.61 0.875 9.91667 2.18167 9.91667 3.79167V4.95833ZM7 2.04167C6.03167 2.04167 5.25 2.82333 5.25 3.79167V4.95833H8.75V3.79167C8.75 2.82333 7.96833 2.04167 7 2.04167ZM3.5 11.9583V6.125H10.5V11.9583H3.5ZM8.16667 9.04167C8.16667 9.68333 7.64167 10.2083 7 10.2083C6.35833 10.2083 5.83333 9.68333 5.83333 9.04167C5.83333 8.4 6.35833 7.875 7 7.875C7.64167 7.875 8.16667 8.4 8.16667 9.04167Z" fill="#8692A6"/>
</svg>
