<svg width="43" height="30" viewBox="0 0 43 30" fill="none" xmlns="http://www.w3.org/2000/svg">
<rect x="0.5" y="0.5" width="41.5" height="29" rx="3.5" fill="white" stroke="#B2BCCA"/>
<path d="M24.072 14.6323C24.072 19.2616 20.3622 23.0145 15.786 23.0145C11.2098 23.0145 7.5 19.2616 7.5 14.6323C7.5 10.0029 11.2098 6.25006 15.786 6.25006C20.3622 6.25006 24.072 10.0029 24.072 14.6323Z" fill="#ED0006"/>
<path d="M34.821 14.6323C34.821 19.2616 31.1113 23.0145 26.535 23.0145C21.9588 23.0145 18.249 19.2616 18.249 14.6323C18.249 10.0029 21.9588 6.25006 26.535 6.25006C31.1113 6.25006 34.821 10.0029 34.821 14.6323Z" fill="#2F80ED"/>
<path fill-rule="evenodd" clip-rule="evenodd" d="M21.1612 8.25243C22.9428 9.78988 24.0725 12.0776 24.0725 14.6322C24.0725 17.1868 22.9428 19.4745 21.1612 21.0119C19.3797 19.4745 18.25 17.1868 18.25 14.6322C18.25 12.0776 19.3797 9.78987 21.1612 8.25243Z" fill="#6C6BBD"/>
</svg>
