<svg width="37" height="34" viewBox="0 0 37 34" fill="none" xmlns="http://www.w3.org/2000/svg">
<path fill-rule="evenodd" clip-rule="evenodd" d="M4.89069 2.82046C4.72136 2.53654 4.6165 2.22021 4.58323 1.89303C4.56171 1.38113 4.82919 0.956562 5.41643 0.595224C5.56194 0.507259 5.71652 0.434589 5.87761 0.378422C6.20081 0.254249 6.5545 0.227416 6.89337 0.301364C7.23224 0.375312 7.54084 0.546671 7.77964 0.793483C8.01843 1.04029 8.17654 1.35132 8.23371 1.68669C8.29088 2.02207 8.24449 2.36653 8.1005 2.67592C7.9613 2.99484 7.73131 3.26778 7.43799 3.46214C7.14468 3.6565 6.80045 3.76406 6.4464 3.77198C6.13134 3.7424 5.82737 3.64264 5.55772 3.48033C5.28808 3.31802 5.05992 3.09746 4.89069 2.83551V2.82046Z" fill="#6F6C99"/>
<path fill-rule="evenodd" clip-rule="evenodd" d="M13.6471 2.82046C13.8178 2.53713 13.9227 2.22051 13.9545 1.89303C13.9761 1.38113 13.7117 0.956562 13.1213 0.595224C12.9758 0.507259 12.8213 0.434589 12.6602 0.378422C12.337 0.254249 11.9833 0.227416 11.6444 0.301364C11.3055 0.375312 10.9969 0.546671 10.7581 0.793483C10.5193 1.04029 10.3612 1.35132 10.3041 1.68669C10.2469 2.02207 10.2933 2.36653 10.4373 2.67592C10.5765 2.99484 10.8065 3.26778 11.0998 3.46214C11.3931 3.6565 11.7373 3.76406 12.0914 3.77198C12.4064 3.7424 12.7104 3.64264 12.9801 3.48033C13.2497 3.31802 13.4779 3.09746 13.6471 2.83551V2.82046Z" fill="#6F6C99"/>
<path fill-rule="evenodd" clip-rule="evenodd" d="M31.0477 1.77903C32.4969 1.77897 33.8963 2.31419 34.9823 3.28397C36.0684 4.25375 36.7663 5.59122 36.9446 7.04469C37.123 8.49815 36.7696 9.96738 35.9509 11.1759C35.1322 12.3844 33.9046 13.2489 32.4992 13.6066C32.4992 14.0151 32.5258 13.9763 32.5435 14.6382C32.5759 15.7861 32.6113 17.0055 32.6113 18.0103C32.6113 25.5028 31.3132 34 20.5623 34C16.5734 34 13.6526 32.068 11.6081 29.3727C9.19765 26.1945 8.06769 21.919 7.85231 18.6662C7.15211 18.1511 6.51786 17.5502 5.96411 16.8773C4.99746 15.7157 4.13642 14.4683 3.39144 13.1504C3.2848 12.9641 3.22285 12.7551 3.21056 12.5403C3.19826 12.3254 3.23596 12.1106 3.32064 11.9131L3.19377 11.6656C1.46489 8.26079 0.334921 4.51305 0.871878 2.8941C1.12265 2.12786 1.72452 1.62399 2.61551 1.34373C3.54205 1.10032 4.50308 1.01964 5.45666 1.10521C5.58064 1.11167 5.70215 1.14274 5.81425 1.19666C5.92634 1.25057 6.02683 1.32627 6.10998 1.41944C6.19313 1.5126 6.2573 1.6214 6.29884 1.73963C6.34038 1.85785 6.35847 1.98319 6.35208 2.10848C6.34569 2.23377 6.31494 2.35656 6.26159 2.46984C6.20823 2.58313 6.13333 2.68468 6.04114 2.76871C5.94895 2.85273 5.84129 2.91759 5.7243 2.95956C5.60731 3.00154 5.48328 3.01982 5.3593 3.01336C4.62987 2.94364 3.89405 2.99705 3.18197 3.17138C2.88694 3.26381 2.71287 3.37114 2.67157 3.49636C2.28508 4.62635 3.34129 7.76586 4.8666 10.7951C4.92856 10.9203 4.99051 11.0425 5.05542 11.1648C5.34854 11.2766 5.59449 11.4872 5.75169 11.7611C6.40851 12.9322 7.16886 14.0409 8.02343 15.0735C8.37342 15.4966 8.76158 15.8858 9.1829 16.2363H9.32157C9.73988 15.9286 10.1255 15.5779 10.4722 15.1898C11.3806 14.1437 12.184 13.0092 12.8708 11.8028C13.0267 11.5301 13.2704 11.3197 13.5612 11.2065C15.1602 8.22501 16.3168 5.01096 16.0807 3.75277C16.0276 3.45462 15.7857 3.27872 15.4081 3.15647C14.6937 2.96416 13.9546 2.88273 13.216 2.91497C12.9656 2.91497 12.7255 2.81445 12.5484 2.63553C12.3713 2.45661 12.2719 2.21393 12.2719 1.9609C12.2719 1.70786 12.3713 1.46519 12.5484 1.28626C12.7255 1.10734 12.9656 1.00682 13.216 1.00682C14.1592 0.969682 15.1023 1.08441 16.0099 1.34671C17.016 1.68958 17.7359 2.31569 17.9394 3.40394C18.2345 5.04376 17.0543 8.67521 15.3107 11.9608C15.3953 12.1608 15.4322 12.378 15.4183 12.595C15.4045 12.8121 15.3403 13.0227 15.231 13.2101C14.4462 14.5769 13.5312 15.863 12.4991 17.0502C11.9405 17.6813 11.3016 18.2348 10.5991 18.696C10.8026 21.4748 11.7792 25.0406 13.7824 27.6852C15.3432 29.7514 17.5529 31.2183 20.5593 31.2183C28.8733 31.2183 29.8734 24.1939 29.8734 18.0013C29.8734 16.7044 29.8439 15.6728 29.8174 14.7038C29.7967 14.0479 29.779 13.857 29.7672 13.6364C28.3388 13.3155 27.0778 12.4732 26.2258 11.2709C25.3738 10.0686 24.9908 8.59089 25.1502 7.12091C25.3095 5.65093 26 4.29206 27.0893 3.30468C28.1787 2.31731 29.5902 1.77087 31.0536 1.77008L31.0477 1.77903ZM31.0477 3.93762C31.8004 3.93762 32.5362 4.1632 33.1621 4.58581C33.788 5.00843 34.2758 5.60911 34.5639 6.3119C34.8519 7.01469 34.9273 7.78801 34.7804 8.53409C34.6336 9.28016 34.2711 9.96548 33.7388 10.5034C33.2066 11.0413 32.5284 11.4076 31.7902 11.556C31.0519 11.7044 30.2866 11.6282 29.5912 11.3371C28.8958 11.046 28.3014 10.553 27.8832 9.92054C27.465 9.28805 27.2418 8.54444 27.2418 7.78375C27.2414 7.27856 27.3395 6.77825 27.5307 6.31144C27.7218 5.84463 28.0021 5.42048 28.3556 5.06325C28.7091 4.70603 29.1288 4.42274 29.5907 4.22959C30.0527 4.03645 30.5478 3.93723 31.0477 3.93762Z" fill="url(#paint0_linear_3405_24754)"/>
<path fill-rule="evenodd" clip-rule="evenodd" d="M19.0748 15H21.5941C21.8204 15.0008 22.0372 15.093 22.1972 15.2563C22.3572 15.4196 22.4474 15.6408 22.4483 15.8718V18.841H25.3575C25.5838 18.8418 25.8006 18.934 25.9606 19.0973C26.1206 19.2606 26.2109 19.4819 26.2117 19.7128V22.284C26.2117 22.5155 26.1218 22.7376 25.9617 22.9016C25.8016 23.0656 25.5843 23.1582 25.3575 23.159H22.4483V26.125C22.4483 26.3565 22.3584 26.5786 22.1983 26.7426C22.0382 26.9066 21.8209 26.9992 21.5941 27H19.0748C18.8477 26.9992 18.6301 26.9067 18.4695 26.7428C18.3089 26.5789 18.2183 26.3568 18.2175 26.125V23.159H15.3114C15.0843 23.1582 14.8667 23.0657 14.7061 22.9018C14.5455 22.7379 14.4549 22.5158 14.4541 22.284V19.7128C14.4549 19.481 14.5455 19.259 14.7061 19.095C14.8667 18.9311 15.0843 18.8387 15.3114 18.8379H18.2206V15.8718C18.2214 15.6408 18.3117 15.4196 18.4717 15.2563C18.6317 15.093 18.8485 15.0008 19.0748 15Z" fill="#F16178"/>
<defs>
<linearGradient id="paint0_linear_3405_24754" x1="18.8636" y1="1" x2="18.8636" y2="34" gradientUnits="userSpaceOnUse">
<stop stop-color="#6F6C99"/>
<stop offset="1" stop-color="#504E70"/>
</linearGradient>
</defs>
</svg>
