<svg width="31" height="36" viewBox="0 0 31 36" fill="none" xmlns="http://www.w3.org/2000/svg">
<path fill-rule="evenodd" clip-rule="evenodd" d="M15.7103 1.96082L12.1522 6.15928L10.1063 27.7497H21.3114L19.2654 6.15928L15.7103 1.96082ZM14.9398 7.51381C14.9398 7.30619 15.021 7.10708 15.1655 6.96028C15.31 6.81347 15.5059 6.731 15.7103 6.731C15.9146 6.731 16.1106 6.81347 16.2551 6.96028C16.3996 7.10708 16.4807 7.30619 16.4807 7.51381V11.3077C16.4807 11.5153 16.3996 11.7144 16.2551 11.8612C16.1106 12.008 15.9146 12.0905 15.7103 12.0905C15.5059 12.0905 15.31 12.008 15.1655 11.8612C15.021 11.7144 14.9398 11.5153 14.9398 11.3077V7.51381ZM14.9398 13.4157C14.9398 13.2081 15.021 13.009 15.1655 12.8622C15.31 12.7154 15.5059 12.6329 15.7103 12.6329C15.9146 12.6329 16.1106 12.7154 16.2551 12.8622C16.3996 13.009 16.4807 13.2081 16.4807 13.4157V26.4333C16.4807 26.6409 16.3996 26.84 16.2551 26.9868C16.1106 27.1336 15.9146 27.2161 15.7103 27.2161C15.5059 27.2161 15.31 27.1336 15.1655 26.9868C15.021 26.84 14.9398 26.6409 14.9398 26.4333V13.4157ZM6.12401 28.3449H8.51048L10.6459 5.78693C10.6549 5.61592 10.7199 5.45287 10.8306 5.32369L15.1216 0.277917L15.2082 0.18996C15.362 0.0547708 15.5624 -0.0128278 15.7653 0.00201525C15.9683 0.0168583 16.1571 0.112929 16.2903 0.269121L20.5871 5.32369C20.6926 5.44692 20.7572 5.6008 20.7718 5.76347L22.9101 28.339H25.3398C25.5154 28.3397 25.6836 28.4105 25.8083 28.5361C25.933 28.6617 26.0041 28.832 26.0064 29.0104V31.7898H27.7782C27.955 31.7914 28.1241 31.8636 28.2489 31.9909C28.3737 32.1182 28.4441 32.2904 28.4448 32.47V35.0765H30.9265V36H0.294922V35.0765H2.89204V32.47C2.89204 32.2896 2.96258 32.1166 3.08813 31.989C3.21368 31.8615 3.38396 31.7898 3.56152 31.7898H5.44588V29.0104C5.44663 28.831 5.51711 28.6592 5.64196 28.5323C5.7668 28.4055 5.93591 28.3339 6.11247 28.3331L6.12401 28.3449Z" fill="url(#paint0_linear_3405_24768)"/>
<defs>
<linearGradient id="paint0_linear_3405_24768" x1="15.6107" y1="0" x2="15.6107" y2="36" gradientUnits="userSpaceOnUse">
<stop stop-color="#6F6C99"/>
<stop offset="1" stop-color="#524F72"/>
</linearGradient>
</defs>
</svg>
