<svg width="76" height="30" viewBox="0 0 76 30" fill="none" xmlns="http://www.w3.org/2000/svg">
<path d="M62.2041 15.7947C61.0097 15.7947 60.0347 14.8197 60.0347 13.6253C60.0347 12.4188 61.0097 11.456 62.2041 11.456C63.3984 11.456 64.3734 12.431 64.3734 13.6253C64.3856 14.8197 63.4106 15.7947 62.2041 15.7947ZM62.2041 9.38416C59.8641 9.38416 57.9629 11.2854 57.9629 13.6253C57.9629 15.9653 59.8641 17.8665 62.2041 17.8665C64.544 17.8665 66.4452 15.9653 66.4452 13.6253C66.4452 11.2732 64.544 9.38416 62.2041 9.38416Z" fill="black"/>
<path d="M42.7285 15.7947C41.5341 15.7947 40.5591 14.8197 40.5591 13.6253C40.5591 12.4188 41.5341 11.456 42.7285 11.456C43.9228 11.456 44.8978 12.431 44.8978 13.6253C44.8978 14.8197 43.9228 15.7947 42.7285 15.7947ZM42.7285 9.38416C40.3885 9.38416 38.4873 11.2854 38.4873 13.6253C38.4873 15.9653 40.3885 17.8665 42.7285 17.8665C45.0684 17.8665 46.9697 15.9653 46.9697 13.6253C46.9575 11.2732 45.0684 9.38416 42.7285 9.38416Z" fill="black"/>
<path d="M57.6946 15.9166C57.4265 15.9898 57.0121 16.0751 56.8659 16.0751C56.1346 16.0751 55.9884 15.8191 55.9884 15.1367V11.2124H57.719V9.57926H55.9884V7.26367H54.0384L53.624 9.57926H52.2712H52.1616C51.0525 9.57926 50.2116 10.2617 49.6754 11.322L49.0051 9.57926H47.6035V17.7082H49.9922V14.1739C49.9922 12.3945 51.0525 11.2489 52.2956 11.2124H53.5997V15.2585C53.5997 17.1598 54.5746 17.8666 56.159 17.8666C56.9755 17.8666 57.6093 17.696 57.9871 17.5741L57.6946 15.9166Z" fill="black"/>
<path d="M69.3454 12.1385V17.7081H67.0176V9.56702H68.4313L68.9066 10.8101" fill="black"/>
<path d="M68.8945 10.8223C69.6014 10.0057 70.5642 9.38416 71.6976 9.38416C73.6354 9.38416 74.4276 10.9319 74.4276 12.3579V17.7081H72.0389V12.431C72.0389 11.7363 71.4539 11.3585 70.8323 11.3585C70.162 11.3585 69.7355 11.7485 69.3576 12.1507" fill="black"/>
<path d="M29.2129 6.62988H31.8819L35.5381 13.5888V6.62988H37.744V17.7081H35.3309L31.4188 10.0423V17.7081H29.2129V6.62988Z" fill="black"/>
<path d="M74.4277 9.57922V9.73766H74.6471V10.5055H74.8299V9.73766H75.0615V9.57922H74.4277Z" fill="black"/>
<path d="M75.7564 9.57922L75.598 10.1886L75.4273 9.57922H75.1836V10.5055H75.342V9.77422L75.537 10.5055H75.6589L75.8539 9.77422V10.5055H76.0001V9.57922H75.7564Z" fill="black"/>
<path d="M12.6992 7.94614C10.3836 7.94614 8.20204 8.848 6.55676 10.4933C4.91148 12.1386 4.00962 14.3201 4.00962 16.6357C4.00962 18.9513 4.91148 21.1328 6.55676 22.7781C8.20204 24.4234 10.3836 25.3252 12.6992 25.3252C15.0147 25.3252 17.1963 24.4234 18.8415 22.7781C20.4746 21.1328 21.3765 18.9513 21.3887 16.6357C21.3887 14.3201 20.4868 12.1386 18.8415 10.4933C17.1963 8.86019 15.0147 7.94614 12.6992 7.94614ZM12.6992 29.3348C5.70365 29.3348 0 23.6312 0 16.6357C0 9.62799 5.70365 3.93652 12.6992 3.93652C19.6947 3.93652 25.3983 9.62799 25.3983 16.6357C25.3983 23.6312 19.6947 29.3348 12.6992 29.3348Z" fill="#FFC20E"/>
<path d="M27.5184 1.97437H26.5312V2.96153H27.5184V1.97437Z" fill="#FFC20E"/>
<path d="M27.5184 0H26.5312V0.98717H27.5184V0Z" fill="#FFC20E"/>
<path d="M24.6801 2.96143H23.7539V3.92422H24.6801V2.96143Z" fill="white"/>
<path d="M22.8505 4.86279H21.9121V5.78903H22.8505V4.86279Z" fill="black"/>
<path d="M25.7029 3.92432H24.667V4.85055H25.7029V3.92432Z" fill="black"/>
<path d="M21.9126 3.97314H20.9863V4.86281H21.9126V3.97314Z" fill="black"/>
<path d="M24.6801 4.86279H23.7539V5.78903H24.6801V4.86279Z" fill="black"/>
<path d="M26.5316 0.99939H25.5566V1.98657H26.5316V0.99939Z" fill="black"/>
<path d="M25.5576 1.97437H23.7539V2.96153H25.5576V1.97437Z" fill="black"/>
<path d="M23.7534 2.96143H22.8516V4.86264H23.7534V2.96143Z" fill="black"/>
<path d="M22.8515 5.78894V6.71517H21.9131V5.78894H20.3653V6.45924H19.5365V7.28797H20.4628V8.21421H19.5365V7.28797H18.5494V8.73826H17.6231V9.6645H17.0016V10.5907H16.3191C15.5513 11.7241 13.6501 15.2585 13.0651 16.6966C10.9811 13.796 9.36016 12.6504 8.09268 12.236C7.41019 12.0288 6.58145 12.7723 7.71487 13.9544C10.3351 16.8428 11.1639 19.2193 11.956 21.1327C12.3826 22.1321 14.2716 22.2905 14.6494 21.2668C15.4538 19.1096 16.6238 16.6722 18.0131 14.6857V13.6497H18.7566V12.7235H19.5365V11.6388H20.4628V10.6029H19.5244V9.65231H20.4628V10.6029H21.3768V9.6645H22.1081V8.53108H22.9368V7.75109H23.729V5.78894H22.8515Z" fill="black"/>
<path d="M31.879 25.9128C31.879 26.2512 31.7563 26.5151 31.5107 26.7045C31.2652 26.8939 30.932 26.9886 30.5112 26.9886C30.0552 26.9886 29.7045 26.9299 29.459 26.8124V26.381C29.6168 26.4476 29.7887 26.5002 29.9746 26.5388C30.1604 26.5774 30.3446 26.5967 30.527 26.5967C30.8251 26.5967 31.0495 26.5406 31.2004 26.4283C31.3512 26.3144 31.4266 26.1565 31.4266 25.9549C31.4266 25.8216 31.3994 25.7129 31.345 25.6287C31.2924 25.5428 31.203 25.4638 31.0767 25.3919C30.9522 25.32 30.7619 25.2385 30.5059 25.1473C30.1482 25.0193 29.8921 24.8676 29.7378 24.6922C29.5852 24.5169 29.509 24.288 29.509 24.0057C29.509 23.7093 29.6203 23.4735 29.843 23.2981C30.0657 23.1227 30.3604 23.035 30.7269 23.035C31.1092 23.035 31.4608 23.1052 31.7817 23.2455L31.6423 23.6348C31.3249 23.5015 31.0162 23.4349 30.7163 23.4349C30.4796 23.4349 30.2946 23.4857 30.1613 23.5874C30.028 23.6892 29.9614 23.8303 29.9614 24.0109C29.9614 24.1442 29.986 24.2538 30.0351 24.3398C30.0842 24.4239 30.1666 24.502 30.2823 24.5739C30.3998 24.644 30.5787 24.722 30.8189 24.808C31.2223 24.9518 31.4993 25.1061 31.6502 25.2709C31.8027 25.4358 31.879 25.6497 31.879 25.9128Z" fill="black"/>
<path d="M33.8177 26.9886C33.3915 26.9886 33.0548 26.8589 32.8076 26.5993C32.5621 26.3398 32.4393 25.9794 32.4393 25.5182C32.4393 25.0535 32.5533 24.6843 32.7813 24.4108C33.011 24.1372 33.3188 24.0004 33.7046 24.0004C34.0658 24.0004 34.3517 24.1197 34.5621 24.3582C34.7725 24.5949 34.8777 24.9079 34.8777 25.2972V25.5734H32.8917C32.9005 25.9119 32.9856 26.1688 33.1469 26.3442C33.31 26.5195 33.5388 26.6072 33.8334 26.6072C34.1438 26.6072 34.4507 26.5423 34.7541 26.4126V26.8019C34.5998 26.8685 34.4534 26.9159 34.3148 26.9439C34.178 26.9737 34.0123 26.9886 33.8177 26.9886ZM33.6993 24.3661C33.4678 24.3661 33.2828 24.4415 33.1443 24.5923C33.0075 24.7431 32.9268 24.9518 32.9023 25.2183H34.4095C34.4095 24.943 34.3481 24.7326 34.2254 24.587C34.1026 24.4397 33.9273 24.3661 33.6993 24.3661Z" fill="black"/>
<path d="M36.7769 26.9886C36.3596 26.9886 36.036 26.8606 35.8063 26.6046C35.5783 26.3468 35.4643 25.9829 35.4643 25.5129C35.4643 25.0307 35.5801 24.658 35.8116 24.395C36.0448 24.1319 36.3762 24.0004 36.8059 24.0004C36.9444 24.0004 37.083 24.0153 37.2215 24.0451C37.36 24.075 37.4688 24.11 37.5477 24.1504L37.4135 24.5213C37.3171 24.4827 37.2118 24.4511 37.0979 24.4266C36.9839 24.4003 36.883 24.3871 36.7954 24.3871C36.2096 24.3871 35.9168 24.7606 35.9168 25.5077C35.9168 25.8619 35.9878 26.1337 36.1298 26.3231C36.2736 26.5125 36.4858 26.6072 36.7664 26.6072C37.0067 26.6072 37.2531 26.5555 37.5056 26.452V26.8387C37.3127 26.9387 37.0698 26.9886 36.7769 26.9886Z" fill="black"/>
<path d="M38.6025 24.053V25.9233C38.6025 26.1583 38.656 26.3336 38.7629 26.4494C38.8699 26.5651 39.0374 26.623 39.2654 26.623C39.567 26.623 39.7871 26.5406 39.9256 26.3757C40.0659 26.2109 40.136 25.9417 40.136 25.5682V24.053H40.5727V26.936H40.2123L40.1492 26.5493H40.1255C40.0361 26.6914 39.9116 26.8001 39.752 26.8755C39.5942 26.9509 39.4135 26.9886 39.2101 26.9886C38.8594 26.9886 38.5963 26.9053 38.421 26.7387C38.2474 26.5721 38.1606 26.3056 38.1606 25.9391V24.053H38.6025Z" fill="black"/>
<path d="M42.8165 24.0004C42.9445 24.0004 43.0594 24.0109 43.1611 24.032L43.1006 24.4371C42.9813 24.4108 42.8761 24.3976 42.7849 24.3976C42.5517 24.3976 42.3518 24.4923 42.1852 24.6817C42.0203 24.8711 41.9379 25.107 41.9379 25.3893V26.936H41.5013V24.053H41.8616L41.9116 24.587H41.9327C42.0396 24.3994 42.1685 24.2547 42.3193 24.153C42.4701 24.0513 42.6359 24.0004 42.8165 24.0004Z" fill="black"/>
<path d="M44.137 26.936H43.7003V24.053H44.137V26.936ZM43.6635 23.2718C43.6635 23.1718 43.6881 23.099 43.7372 23.0535C43.7863 23.0061 43.8476 22.9824 43.9213 22.9824C43.9914 22.9824 44.0519 23.0061 44.1028 23.0535C44.1536 23.1008 44.1791 23.1736 44.1791 23.2718C44.1791 23.37 44.1536 23.4436 44.1028 23.4927C44.0519 23.5401 43.9914 23.5638 43.9213 23.5638C43.8476 23.5638 43.7863 23.5401 43.7372 23.4927C43.6881 23.4436 43.6635 23.37 43.6635 23.2718Z" fill="black"/>
<path d="M45.9941 26.6283C46.0713 26.6283 46.1458 26.623 46.2177 26.6125C46.2896 26.6002 46.3466 26.5879 46.3887 26.5756V26.9097C46.3413 26.9325 46.2712 26.9509 46.1782 26.965C46.087 26.9807 46.0046 26.9886 45.931 26.9886C45.3733 26.9886 45.0945 26.6949 45.0945 26.1074V24.3924H44.6815V24.1819L45.0945 24.0004L45.2786 23.3849H45.5311V24.053H46.3676V24.3924H45.5311V26.089C45.5311 26.2626 45.5723 26.3959 45.6548 26.4888C45.7372 26.5818 45.8503 26.6283 45.9941 26.6283Z" fill="black"/>
<path d="M46.5097 24.053H46.9779L47.6092 25.6971C47.7477 26.0724 47.8337 26.3433 47.867 26.5099H47.888C47.9108 26.4205 47.9582 26.2679 48.0301 26.0522C48.1037 25.8347 48.3422 25.1683 48.7456 24.053H49.2138L47.9748 27.3359C47.8521 27.6603 47.7083 27.89 47.5434 28.025C47.3803 28.1618 47.1796 28.2302 46.9411 28.2302C46.8078 28.2302 46.6763 28.2153 46.5465 28.1855V27.8356C46.6429 27.8567 46.7508 27.8672 46.87 27.8672C47.1699 27.8672 47.3839 27.6989 47.5119 27.3622L47.6723 26.9518L46.5097 24.053Z" fill="black"/>
<path d="M52.7938 23.4349C52.3712 23.4349 52.0371 23.576 51.7916 23.8584C51.5479 24.139 51.426 24.5239 51.426 25.0132C51.426 25.5164 51.5435 25.9058 51.7785 26.1811C52.0152 26.4546 52.3519 26.5914 52.7886 26.5914C53.0569 26.5914 53.3629 26.5432 53.7066 26.4468V26.8387C53.4401 26.9387 53.1113 26.9886 52.7202 26.9886C52.1538 26.9886 51.7162 26.8168 51.4076 26.4731C51.1007 26.1293 50.9473 25.641 50.9473 25.0079C50.9473 24.6116 51.0209 24.2643 51.1682 23.9662C51.3173 23.6681 51.5312 23.4384 51.8101 23.277C52.0906 23.1157 52.4203 23.035 52.7991 23.035C53.2024 23.035 53.5549 23.1087 53.8566 23.256L53.6672 23.64C53.3761 23.5033 53.085 23.4349 52.7938 23.4349Z" fill="black"/>
<path d="M56.4528 26.936V25.071C56.4528 24.836 56.3993 24.6607 56.2924 24.5449C56.1854 24.4292 56.0179 24.3713 55.7899 24.3713C55.4866 24.3713 55.2647 24.4537 55.1244 24.6186C54.9859 24.7834 54.9166 25.0535 54.9166 25.4288V26.936H54.48V22.843H54.9166V24.082C54.9166 24.231 54.9096 24.3547 54.8956 24.4529H54.9219C55.0078 24.3143 55.1297 24.2056 55.2875 24.1267C55.4471 24.046 55.6286 24.0057 55.832 24.0057C56.1845 24.0057 56.4484 24.0899 56.6238 24.2582C56.8009 24.4248 56.8895 24.6905 56.8895 25.0552V26.936H56.4528Z" fill="black"/>
<path d="M59.007 26.9886C58.5809 26.9886 58.2442 26.8589 57.9969 26.5993C57.7514 26.3398 57.6286 25.9794 57.6286 25.5182C57.6286 25.0535 57.7426 24.6843 57.9706 24.4108C58.2003 24.1372 58.5081 24.0004 58.8939 24.0004C59.2551 24.0004 59.541 24.1197 59.7514 24.3582C59.9619 24.5949 60.0671 24.9079 60.0671 25.2972V25.5734H58.0811C58.0899 25.9119 58.1749 26.1688 58.3362 26.3442C58.4993 26.5195 58.7282 26.6072 59.0228 26.6072C59.3332 26.6072 59.6401 26.5423 59.9435 26.4126V26.8019C59.7891 26.8685 59.6427 26.9159 59.5042 26.9439C59.3674 26.9737 59.2017 26.9886 59.007 26.9886ZM58.8886 24.3661C58.6572 24.3661 58.4721 24.4415 58.3336 24.5923C58.1968 24.7431 58.1162 24.9518 58.0916 25.2183H59.5989C59.5989 24.943 59.5375 24.7326 59.4147 24.587C59.292 24.4397 59.1166 24.3661 58.8886 24.3661Z" fill="black"/>
<path d="M61.9663 26.9886C61.5489 26.9886 61.2254 26.8606 60.9956 26.6046C60.7677 26.3468 60.6537 25.9829 60.6537 25.5129C60.6537 25.0307 60.7694 24.658 61.0009 24.395C61.2341 24.1319 61.5656 24.0004 61.9952 24.0004C62.1338 24.0004 62.2723 24.0153 62.4108 24.0451C62.5494 24.075 62.6581 24.11 62.737 24.1504L62.6029 24.5213C62.5064 24.4827 62.4012 24.4511 62.2872 24.4266C62.1732 24.4003 62.0724 24.3871 61.9847 24.3871C61.399 24.3871 61.1061 24.7606 61.1061 25.5077C61.1061 25.8619 61.1771 26.1337 61.3192 26.3231C61.463 26.5125 61.6752 26.6072 61.9558 26.6072C62.196 26.6072 62.4424 26.5555 62.6949 26.452V26.8387C62.502 26.9387 62.2591 26.9886 61.9663 26.9886Z" fill="black"/>
<path d="M63.8129 25.4603C63.8883 25.3534 64.0031 25.2131 64.1575 25.0395L65.0886 24.053H65.6068L64.4389 25.2815L65.6884 26.936H65.1597L64.1417 25.5734L63.8129 25.8575V26.936H63.3815V22.843H63.8129V25.0132C63.8129 25.1096 63.8059 25.2587 63.7918 25.4603H63.8129Z" fill="black"/>
<path d="M68.7003 25.4919C68.7003 25.9619 68.5819 26.3293 68.3452 26.5941C68.1084 26.8571 67.7814 26.9886 67.364 26.9886C67.1062 26.9886 66.8774 26.9281 66.6774 26.8071C66.4775 26.6861 66.3232 26.5125 66.2145 26.2863C66.1058 26.0601 66.0514 25.7953 66.0514 25.4919C66.0514 25.0219 66.1689 24.6563 66.4039 24.395C66.6389 24.1319 66.965 24.0004 67.3824 24.0004C67.7857 24.0004 68.1058 24.1346 68.3425 24.4029C68.581 24.6712 68.7003 25.0342 68.7003 25.4919ZM66.5038 25.4919C66.5038 25.8602 66.5775 26.1407 66.7248 26.3336C66.8721 26.5265 67.0887 26.623 67.3745 26.623C67.6604 26.623 67.8769 26.5274 68.0242 26.3363C68.1733 26.1434 68.2478 25.8619 68.2478 25.4919C68.2478 25.1254 68.1733 24.8474 68.0242 24.658C67.8769 24.4669 67.6586 24.3713 67.3693 24.3713C67.0834 24.3713 66.8677 24.4651 66.7222 24.6528C66.5766 24.8404 66.5038 25.1201 66.5038 25.4919Z" fill="black"/>
<path d="M69.8787 24.053V25.9233C69.8787 26.1583 69.9322 26.3336 70.0392 26.4494C70.1462 26.5651 70.3136 26.623 70.5416 26.623C70.8432 26.623 71.0633 26.5406 71.2018 26.3757C71.3421 26.2109 71.4123 25.9417 71.4123 25.5682V24.053H71.8489V26.936H71.4886L71.4254 26.5493H71.4018C71.3123 26.6914 71.1878 26.8001 71.0282 26.8755C70.8704 26.9509 70.6898 26.9886 70.4864 26.9886C70.1356 26.9886 69.8726 26.9053 69.6972 26.7387C69.5236 26.5721 69.4368 26.3056 69.4368 25.9391V24.053H69.8787Z" fill="black"/>
<path d="M73.7087 26.6283C73.7858 26.6283 73.8604 26.623 73.9323 26.6125C74.0042 26.6002 74.0612 26.5879 74.1032 26.5756V26.9097C74.0559 26.9325 73.9858 26.9509 73.8928 26.965C73.8016 26.9807 73.7192 26.9886 73.6455 26.9886C73.0879 26.9886 72.8091 26.6949 72.8091 26.1074V24.3924H72.3961V24.1819L72.8091 24.0004L72.9932 23.3849H73.2457V24.053H74.0822V24.3924H73.2457V26.089C73.2457 26.2626 73.2869 26.3959 73.3694 26.4888C73.4518 26.5818 73.5649 26.6283 73.7087 26.6283Z" fill="black"/>
</svg>
