<svg width="43" height="30" viewBox="0 0 43 30" fill="none" xmlns="http://www.w3.org/2000/svg">
<rect x="0.5" y="0.5" width="41.5" height="29" rx="3.5" fill="white" stroke="#B2BCCA"/>
<path fill-rule="evenodd" clip-rule="evenodd" d="M18.2678 23.0605L18.5437 21.2491L17.9291 21.2343H14.9941L17.0338 7.86724C17.0402 7.82676 17.0607 7.78919 17.0907 7.76246C17.1208 7.73573 17.1593 7.72106 17.1995 7.72106H22.1482C23.7912 7.72106 24.925 8.07436 25.5169 8.77178C25.7944 9.09896 25.9711 9.44095 26.0567 9.81716C26.1464 10.212 26.1479 10.6837 26.0604 11.2591L26.054 11.3009V11.6696L26.3316 11.8321C26.5652 11.9603 26.751 12.1069 26.8934 12.2748C27.1308 12.5546 27.2843 12.9102 27.3492 13.3316C27.4163 13.7651 27.3941 14.2811 27.2843 14.8652C27.1577 15.5369 26.953 16.1221 26.6765 16.6008C26.4223 17.0419 26.0984 17.4079 25.7137 17.6914C25.3465 17.9608 24.9102 18.1653 24.4169 18.2963C23.9389 18.4249 23.3938 18.4898 22.7961 18.4898H22.4109C22.1356 18.4898 21.8682 18.5923 21.6582 18.776C21.4476 18.9636 21.3084 19.2199 21.2656 19.5002L21.2365 19.6633L20.749 22.8561L20.727 22.9733C20.7211 23.0104 20.711 23.0289 20.6963 23.0414C20.6831 23.0528 20.6642 23.0605 20.6457 23.0605H18.2678Z" fill="#28356A"/>
<path fill-rule="evenodd" clip-rule="evenodd" d="M26.5951 11.3434C26.5805 11.441 26.5635 11.5407 26.5446 11.6432C25.892 15.1065 23.6591 16.303 20.8076 16.303H19.3556C19.0069 16.303 18.7129 16.5646 18.6587 16.9202L17.7048 23.1743C17.6694 23.4078 17.8435 23.6182 18.0714 23.6182H20.6466C20.9515 23.6182 21.2106 23.3892 21.2586 23.0784L21.2839 22.9432L21.7687 19.7629L21.7999 19.5885C21.8473 19.2766 22.107 19.0475 22.4119 19.0475H22.797C25.292 19.0475 27.2452 18.0006 27.8161 14.9707C28.0544 13.7051 27.931 12.6483 27.3 11.905C27.1091 11.681 26.8722 11.4949 26.5951 11.3434Z" fill="#2F80ED"/>
<path fill-rule="evenodd" clip-rule="evenodd" d="M25.912 11.0621C25.8123 11.032 25.7094 11.0049 25.6039 10.9803C25.4978 10.9563 25.3892 10.9351 25.2773 10.9164C24.8858 10.851 24.4568 10.82 23.9974 10.82H20.1186C20.023 10.82 19.9322 10.8423 19.8511 10.8827C19.6721 10.9716 19.5393 11.1466 19.5071 11.3609L18.6818 16.7628L18.6582 16.9203C18.7124 16.5647 19.0064 16.3031 19.3551 16.3031H20.8071C23.6586 16.3031 25.8915 15.106 26.5441 11.6433C26.5636 11.5408 26.58 11.4411 26.5946 11.3435C26.4295 11.2529 26.2507 11.1755 26.0582 11.1095C26.0106 11.0931 25.9615 11.0774 25.912 11.0621Z" fill="#28356A"/>
<path fill-rule="evenodd" clip-rule="evenodd" d="M19.5068 11.3609C19.539 11.1466 19.6719 10.9716 19.8508 10.8833C19.9325 10.8428 20.0227 10.8205 20.1183 10.8205H23.9971C24.4566 10.8205 24.8856 10.8517 25.277 10.9171C25.3889 10.9355 25.4975 10.9569 25.6036 10.9809C25.7091 11.0053 25.812 11.0327 25.9117 11.0626C25.9613 11.0779 26.0103 11.0938 26.0583 11.1095C26.2509 11.1755 26.4299 11.2536 26.5949 11.3435C26.7891 10.0637 26.5933 9.19228 25.9239 8.40321C25.1857 7.53441 23.8536 7.16263 22.149 7.16263H17.2001C16.8519 7.16263 16.5549 7.42428 16.5011 7.78047L14.4398 21.285C14.3992 21.5521 14.5986 21.7931 14.8592 21.7931H17.9145L19.5068 11.3609Z" fill="#28356A"/>
</svg>
