<svg width="17" height="16" viewBox="0 0 17 16" fill="none" xmlns="http://www.w3.org/2000/svg">
<g clip-path="url(#clip0_3567_28366)">
<path d="M13.5735 2.70672e-07C14.1372 -0.000218778 14.6922 0.132518 15.1894 0.38645C15.6865 0.640382 16.1105 1.00767 16.4238 1.45576C16.7371 1.90385 16.9299 2.41892 16.9852 2.95532C17.0406 3.49172 16.9567 4.03288 16.741 4.53087C16.5253 5.02885 16.1845 5.46828 15.7488 5.81021C15.3131 6.15213 14.7959 6.38601 14.2431 6.4911C13.6903 6.59619 13.1189 6.56926 12.5795 6.4127C12.0402 6.25613 11.5495 5.97476 11.1511 5.59352C11.1207 5.56441 11.0916 5.53531 11.0626 5.50488L6.75445 7.22474C6.8533 7.61198 6.87814 8.01311 6.82777 8.4088L11.2064 10.3602C11.8121 9.81029 12.6077 9.49196 13.4424 9.46551C14.2771 9.43905 15.093 9.70632 15.7354 10.2167C16.3778 10.727 16.8022 11.4449 16.9281 12.2345C17.0539 13.024 16.8726 13.8303 16.4184 14.5005C15.9641 15.1707 15.2686 15.6583 14.4636 15.8709C13.6585 16.0835 12.7999 16.0063 12.0504 15.654C11.3009 15.3017 10.7125 14.6987 10.3969 13.9593C10.0812 13.2199 10.0601 12.3954 10.3376 11.6421L6.273 9.82438C5.88038 10.3861 5.31576 10.8181 4.65646 11.0612C3.99716 11.3042 3.27542 11.3464 2.59007 11.182C1.90473 11.0176 1.28928 10.6546 0.828013 10.1427C0.366746 9.63087 0.0822121 8.99519 0.0133745 8.32271C-0.0554631 7.65024 0.0947614 6.97386 0.443477 6.38619C0.792192 5.79852 1.32235 5.3283 1.96134 5.03992C2.60034 4.75153 3.31694 4.65909 4.013 4.77525C4.70907 4.8914 5.35057 5.21047 5.84966 5.68877C5.91054 5.74698 5.97003 5.80784 6.02536 5.87002L10.2781 4.17397C10.133 3.68645 10.1082 3.17338 10.2056 2.67512C10.3029 2.17686 10.5198 1.70699 10.8392 1.30245C11.1586 0.897918 11.5717 0.569748 12.0462 0.343749C12.5207 0.11775 13.0435 8.27777e-05 13.5735 2.70672e-07Z" fill="#88C363"/>
</g>
<defs>
<clipPath id="clip0_3567_28366">
<rect width="17" height="16" fill="white"/>
</clipPath>
</defs>
</svg>
