<svg width="17" height="17" viewBox="0 0 17 17" fill="none" xmlns="http://www.w3.org/2000/svg">
<g clip-path="url(#clip0_3529_24876)">
<path d="M8.50035 8.36813e-06C10.4676 -0.000553967 12.3742 0.681067 13.8953 1.92872C15.4163 3.17637 16.4576 4.91284 16.8418 6.84224C17.226 8.77163 16.9293 10.7746 16.0022 12.5097C15.0751 14.2448 13.5751 15.6048 11.7577 16.3579C9.94023 17.111 7.9179 17.2105 6.03529 16.6396C4.15267 16.0687 2.52627 14.8627 1.43323 13.227C0.340185 11.5913 -0.151857 9.62726 0.0409471 7.66945C0.233752 5.71165 1.09947 3.88128 2.49058 2.49024C3.27871 1.69949 4.21541 1.07239 5.2468 0.64502C6.2782 0.217647 7.38392 -0.00156108 8.50035 8.36813e-06ZM8.92369 10.4894L6.91767 9.56666C6.70551 9.81346 6.42454 9.99134 6.1107 10.0775C5.79687 10.1637 5.46446 10.1543 5.156 10.0505C4.84755 9.94669 4.57709 9.7532 4.37924 9.49479C4.18138 9.23638 4.06514 8.92481 4.04538 8.59996C4.02562 8.2751 4.10324 7.95174 4.26832 7.67126C4.43339 7.39077 4.6784 7.16593 4.972 7.02549C5.26559 6.88506 5.59442 6.83542 5.91639 6.88294C6.23835 6.93047 6.53882 7.07298 6.77932 7.29224L8.90985 6.40268C8.89717 6.31795 8.89069 6.23241 8.89049 6.14674C8.89048 5.71508 9.06129 5.30096 9.36561 4.99483C9.66992 4.68869 10.083 4.51542 10.5147 4.51287C10.7777 4.51195 11.0372 4.57451 11.2709 4.69525C11.5046 4.816 11.7058 4.99135 11.8573 5.20642C12.0088 5.4215 12.1061 5.66995 12.1411 5.93069C12.1761 6.19144 12.1476 6.45677 12.0582 6.70417C11.9687 6.95157 11.8209 7.17373 11.6273 7.3518C11.4336 7.52988 11.1999 7.6586 10.9458 7.72705C10.6918 7.79549 10.425 7.80164 10.1681 7.74498C9.91124 7.68831 9.67181 7.5705 9.47016 7.40154L7.2995 8.30079C7.30688 8.36351 7.31103 8.42576 7.31195 8.48756L9.56838 9.53207C9.86662 9.32256 10.2266 9.21927 10.5905 9.23874C10.9545 9.25821 11.3013 9.39932 11.5755 9.63945C11.8497 9.87958 12.0353 10.2048 12.1026 10.563C12.1699 10.9212 12.1149 11.2917 11.9466 11.6149C11.7782 11.9382 11.5062 12.1955 11.1741 12.3457C10.842 12.4959 10.4691 12.5303 10.1152 12.4433C9.76126 12.3563 9.4468 12.1529 9.22221 11.8659C8.99763 11.5788 8.87594 11.2247 8.87665 10.8602C8.87709 10.7354 8.89148 10.611 8.91954 10.4894H8.92369ZM13.5431 3.45867C12.3761 2.29265 10.841 1.56733 9.19926 1.40627C7.5575 1.24521 5.91069 1.65839 4.53942 2.57541C3.16815 3.49243 2.15726 4.85654 1.67899 6.43533C1.20073 8.01412 1.28468 9.7099 1.91654 11.2337C2.5484 12.7576 3.68908 14.0152 5.14422 14.7923C6.59936 15.5693 8.27893 15.8179 9.89676 15.4954C11.5146 15.173 12.9706 14.2996 14.0166 13.024C15.0627 11.7485 15.6341 10.1496 15.6335 8.50001C15.6344 7.56342 15.4501 6.63589 15.0914 5.77072C14.7326 4.90556 14.2065 4.11982 13.5431 3.45867Z" fill="white"/>
</g>
<defs>
<clipPath id="clip0_3529_24876">
<rect width="17" height="17" fill="white"/>
</clipPath>
</defs>
</svg>
