<svg width="30" height="31" viewBox="0 0 30 30" fill="none" xmlns="http://www.w3.org/2000/svg">
<path fill-rule="evenodd" clip-rule="evenodd" d="M22.7664 7.13949H29.9388C30.3108 13.5272 29.2103 19.4608 20.3064 19.0168C18.1285 21.6001 15.5068 22.2838 16.951 26.1411H18.4337C19.1777 26.1411 19.7831 26.739 19.7831 27.4681V28.5479H20.35C21.0785 28.5479 21.6762 29.1331 21.6762 29.8521V31H8.32411V29.8521C8.32411 29.1357 8.91925 28.5479 9.65034 28.5479H10.2173V27.4681C10.2173 26.7365 10.8252 26.1411 11.5666 26.1411H13.2032C14.5551 22.3544 11.977 21.7893 9.79143 19.0092C0.79769 19.5037 -0.31306 13.5524 0.0614657 7.13949H7.23388V4.927H6.04105C5.29456 4.927 4.6866 4.32658 4.6866 3.59497V2.28312H4.58655C3.94781 2.28312 3.42706 1.76847 3.42706 1.14282V0.454102C3.42706 0.204346 3.63485 0 3.88881 0H26.1141C26.368 0 26.5758 0.204346 26.5758 0.454102V1.1403C26.5758 1.76847 26.0525 2.2806 25.4163 2.2806H25.3163V3.59245C25.3163 4.32658 24.7058 4.92448 23.9618 4.92448H22.769V7.13949H22.7664ZM15.0014 7.77523L15.8044 9.69759L17.9156 9.854L16.2995 11.2012L16.8022 13.2194L15.004 12.1245L13.2058 13.2194L13.7086 11.2012L12.0925 9.854L14.2036 9.69759L15.0014 7.77523ZM22.1226 9.53109L21.3248 16.61C26.6246 16.557 27.4352 13.6861 27.4352 9.53109H22.1226ZM7.87776 9.53109L8.67555 16.61C3.37832 16.557 2.56514 13.6861 2.56514 9.53109H7.87776ZM15.0014 6.53654C17.2255 6.53654 19.0289 8.31006 19.0289 10.4973C19.0289 12.6846 17.2255 14.4581 15.0014 14.4581C12.7774 14.4581 10.974 12.6846 10.974 10.4973C10.9714 8.31006 12.7748 6.53654 15.0014 6.53654Z" fill="url(#paint0_linear_3405_24973)"/>
<defs>
<linearGradient id="paint0_linear_3405_24973" x1="15" y1="0" x2="15" y2="31" gradientUnits="userSpaceOnUse">
<stop stop-color="#6E6B97"/>
<stop offset="1" stop-color="#524F73"/>
</linearGradient>
</defs>
</svg>
