<svg width="35" height="35" viewBox="0 0 35 35" fill="none" xmlns="http://www.w3.org/2000/svg">
<path d="M8.2301 5.93162H26.7471C27.3808 5.93388 27.9879 6.18683 28.4357 6.63523C28.8835 7.08363 29.1357 7.69103 29.1372 8.32479V26.7806C29.1328 27.4122 28.8788 28.0164 28.4307 28.4615C28.2098 28.6841 27.9471 28.8608 27.6577 28.9816C27.3683 29.1024 27.0579 29.1648 26.7443 29.1652H8.22725C7.59329 29.163 6.98594 28.9101 6.53765 28.4618C6.08937 28.0135 5.83653 27.4061 5.83428 26.7721V8.32479C5.83678 8.01019 5.9015 7.69921 6.02471 7.40974C6.14792 7.12027 6.32718 6.85805 6.55217 6.63818C6.77321 6.41574 7.03594 6.23909 7.32533 6.11834C7.61472 5.99759 7.92508 5.93511 8.23865 5.93447L8.2301 5.93162ZM12.9534 10.6866H22.0182C22.6226 10.6866 23.2023 10.9267 23.6297 11.3542C24.0571 11.7816 24.2972 12.3613 24.2972 12.9658V22.1396C24.2972 22.7441 24.0571 23.3238 23.6297 23.7512C23.2023 24.1787 22.6226 24.4188 22.0182 24.4188H12.9534C12.3489 24.4188 11.7693 24.1787 11.3419 23.7512C10.9145 23.3238 10.6743 22.7441 10.6743 22.1396V12.9601C10.6743 12.3556 10.9145 11.7759 11.3419 11.3485C11.7693 10.921 12.3489 10.6809 12.9534 10.6809V10.6866ZM26.1745 25.4017C26.1751 25.5675 26.1264 25.7297 26.0347 25.8678C25.9431 26.0059 25.8125 26.1138 25.6595 26.1776C25.5065 26.2414 25.338 26.2584 25.1753 26.2264C25.0127 26.1944 24.8632 26.1149 24.7458 25.9978C24.6283 25.8808 24.5483 25.7316 24.5157 25.569C24.4832 25.4065 24.4996 25.2379 24.5629 25.0847C24.6262 24.9315 24.7336 24.8005 24.8714 24.7083C25.0092 24.6161 25.1712 24.567 25.337 24.567C25.5586 24.5669 25.7712 24.6548 25.9282 24.8113C26.0852 24.9677 26.1738 25.1801 26.1745 25.4017ZM10.4692 9.68661C10.4698 9.85239 10.4212 10.0146 10.3295 10.1527C10.2378 10.2909 10.1072 10.3987 9.95419 10.4625C9.8012 10.5263 9.63271 10.5433 9.47005 10.5113C9.3074 10.4793 9.1579 10.3998 9.04048 10.2827C8.92306 10.1657 8.84301 10.0165 8.81046 9.85392C8.77792 9.69136 8.79433 9.5228 8.85764 9.36958C8.92095 9.21636 9.0283 9.08538 9.16609 8.99321C9.30388 8.90105 9.46592 8.85185 9.63169 8.85185C9.85333 8.85185 10.0659 8.93971 10.2229 9.09617C10.3799 9.25264 10.4685 9.46496 10.4692 9.68661ZM25.337 8.8604C25.5031 8.86041 25.6655 8.90984 25.8034 9.00239C25.9414 9.09494 26.0487 9.22644 26.1118 9.38016C26.1748 9.53387 26.1907 9.70287 26.1575 9.86565C26.1242 10.0284 26.0433 10.1777 25.9251 10.2943C25.8068 10.411 25.6565 10.4899 25.4933 10.5209C25.3301 10.5519 25.1613 10.5337 25.0085 10.4685C24.8557 10.4034 24.7257 10.2943 24.635 10.155C24.5444 10.0158 24.4972 9.85274 24.4994 9.68661C24.5002 9.46545 24.5884 9.25356 24.7447 9.09718C24.9011 8.94079 25.113 8.8526 25.3341 8.85185L25.337 8.8604ZM9.63169 24.567C9.79759 24.5664 9.95991 24.6151 10.0981 24.7069C10.2362 24.7987 10.344 24.9295 10.4078 25.0827C10.4715 25.2359 10.4883 25.4045 10.4561 25.5673C10.4239 25.73 10.3441 25.8795 10.2268 25.9968C10.1095 26.1141 9.95997 26.194 9.79724 26.2262C9.63451 26.2584 9.46587 26.2416 9.31271 26.1779C9.15956 26.1141 9.02878 26.0063 8.93697 25.8681C8.84515 25.7299 8.79644 25.5676 8.797 25.4017C8.79776 25.1805 8.88594 24.9687 9.04231 24.8123C9.19868 24.6559 9.41055 24.5677 9.63169 24.567ZM9.83111 31.0513V35H8.35829V31.0541L9.83111 31.0513ZM13.2325 31.0513V35H11.7597V31.0541L13.2325 31.0513ZM16.6311 31.0513V35H15.1583V31.0541L16.6311 31.0513ZM20.0326 31.0513V35H18.5597V31.0541L20.0326 31.0513ZM23.4311 31.0513V35H21.9583V31.0541L23.4311 31.0513ZM26.8326 31.0513V35H25.3541V31.0541L26.8326 31.0513ZM9.83111 0V3.94872H8.35829V0H9.83111ZM13.2325 0V3.94872H11.7597V0H13.2325ZM16.6311 0V3.94872H15.1583V0H16.6311ZM20.0326 0V3.94872H18.5597V0H20.0326ZM23.4311 0V3.94872H21.9583V0H23.4311ZM26.8326 0V3.94872H25.3541V0H26.8326ZM31.0516 25.302H35V26.7806H31.0516V25.302ZM31.0516 21.9003H35V23.3618H31.0516V21.9003ZM31.0516 18.5014H35V19.9744H31.0516V18.5014ZM31.0516 15.0997H35V16.5726H31.0516V15.0997ZM31.0516 11.7009H35V13.1738H31.0516V11.7009ZM31.0516 8.29914H35V9.77208H31.0516V8.29914ZM0 25.302H3.9484V26.7806H0V25.302ZM0 21.9003H3.9484V23.3618H0V21.9003ZM0 18.5014H3.9484V19.9744H0V18.5014ZM0 15.0997H3.9484V16.5726H0V15.0997ZM0 11.7009H3.9484V13.1738H0V11.7009ZM0 8.29914H3.9484V9.77208H0V8.29914ZM26.7414 7.07977H8.2244C7.89476 7.07965 7.57841 7.20968 7.34413 7.4416C7.22866 7.55716 7.13724 7.69445 7.07514 7.84556C7.01304 7.99666 6.9815 8.15857 6.98234 8.32194V26.7806C6.98309 27.1109 7.1144 27.4274 7.34762 27.6612C7.58084 27.8949 7.89705 28.027 8.22725 28.0285H26.7443C26.9098 28.0288 27.0738 27.996 27.2264 27.9319C27.3791 27.8678 27.5174 27.7737 27.6331 27.6553C27.8615 27.4217 27.9885 27.1073 27.9863 26.7806V8.32479C27.9848 7.99505 27.8532 7.67925 27.62 7.44608C27.3869 7.21292 27.0711 7.08127 26.7414 7.07977Z" fill="url(#paint0_linear_3405_24796)"/>
<defs>
<linearGradient id="paint0_linear_3405_24796" x1="17.5" y1="0" x2="17.5" y2="35" gradientUnits="userSpaceOnUse">
<stop stop-color="#696690"/>
<stop offset="1" stop-color="#535074"/>
</linearGradient>
</defs>
</svg>
