<svg width="27" height="23" viewBox="0 0 27 23" fill="none" xmlns="http://www.w3.org/2000/svg">
<path d="M17.9226 15.6586L13.4115 11.1475L8.90039 15.6586" stroke="#9C7A00" stroke-width="2" stroke-linecap="round" stroke-linejoin="round"/>
<path d="M13.4116 11.1475V21.2975" stroke="#9C7A00" stroke-width="2" stroke-linecap="round" stroke-linejoin="round"/>
<path d="M22.8736 18.3537C23.9736 17.7541 24.8425 16.8052 25.3433 15.6568C25.8441 14.5084 25.9482 13.226 25.6392 12.0119C25.3301 10.7978 24.6256 9.72117 23.6368 8.95195C22.6479 8.18273 21.431 7.76472 20.1782 7.7639H18.7572C18.4159 6.44354 17.7796 5.21775 16.8963 4.17868C16.0131 3.13961 14.9057 2.3143 13.6575 1.7648C12.4094 1.2153 11.0529 0.955905 9.69003 1.00612C8.32719 1.05633 6.99346 1.41484 5.78912 2.05471C4.58477 2.69457 3.54116 3.59913 2.73673 4.70038C1.93229 5.80163 1.38798 7.07092 1.14471 8.41281C0.901433 9.75471 0.965531 11.1343 1.33218 12.4478C1.69883 13.7614 2.35849 14.9748 3.26157 15.9967" stroke="#9C7A00" stroke-width="2" stroke-linecap="round" stroke-linejoin="round"/>
<path d="M17.9226 15.6586L13.4115 11.1475L8.90039 15.6586" stroke="#9C7A00" stroke-width="2" stroke-linecap="round" stroke-linejoin="round"/>
</svg>
