<svg width="37" height="38" viewBox="0 0 37 38" fill="none" xmlns="http://www.w3.org/2000/svg">
<path fill-rule="evenodd" clip-rule="evenodd" d="M17.3676 0.944573C17.3807 1.29803 17.504 1.63721 17.7186 1.91003C17.9811 2.29065 18.3085 2.50726 18.3675 2.99927C18.4265 3.49128 18.2643 4.11326 18.1935 4.54648C16.8195 4.61428 15.4632 4.89908 14.1702 5.39126C13.9342 5.12823 13.4564 4.41033 13.4269 4.10088C13.4143 3.8898 13.4465 3.67843 13.5213 3.482C13.6894 2.99617 13.8634 2.204 13.6392 1.71508C13.1112 0.570147 10.2884 1.83886 10.7132 3.02712C10.8566 3.34738 11.0973 3.6086 11.3975 3.76978C11.781 4.01115 12.1556 4.07922 12.4033 4.50316C12.6511 4.92709 12.7248 5.56455 12.8369 5.98848C11.6561 6.5957 10.5636 7.37609 9.59231 8.3062C9.27964 8.16077 8.56878 7.68732 8.43014 7.41192C8.34114 7.21868 8.29285 7.0076 8.28856 6.79303C8.26791 6.27936 8.14108 5.4779 7.75467 5.11585C6.84913 4.27108 4.70473 6.57333 5.53063 7.50165C5.78012 7.73932 6.09738 7.88399 6.43323 7.91321C6.87273 7.98129 7.24438 7.89465 7.62784 8.18862C8.01129 8.48259 8.31511 9.04577 8.56288 9.40163C7.6824 10.4329 6.94644 11.5905 6.37718 12.8395C6.03797 12.8395 5.19732 12.6755 4.982 12.4775C4.83001 12.3363 4.70921 12.1621 4.62804 11.9669C4.42156 11.4966 4.01156 10.8065 3.52192 10.627C2.3804 10.2093 1.23298 13.1954 2.34205 13.7214C2.65883 13.8395 3.00366 13.846 3.32429 13.74C3.75789 13.6286 4.0676 13.3965 4.5307 13.5141C4.99379 13.6317 5.47459 14.0278 5.8315 14.2599C5.40111 15.565 5.15081 16.9279 5.08818 18.3074C4.76962 18.4342 3.94962 18.6168 3.6635 18.5333C3.47155 18.4633 3.29643 18.3503 3.15026 18.2022C2.78155 17.8556 2.15327 17.3791 1.62824 17.41C0.421826 17.4812 0.448373 20.7025 1.66068 20.7489C1.99656 20.731 2.31765 20.5984 2.57508 20.3714C2.93493 20.096 3.13846 19.7525 3.60746 19.6813C4.07645 19.6101 4.66933 19.7803 5.08228 19.8484C5.156 21.228 5.41927 22.5891 5.86394 23.8897C5.61322 24.1373 4.92595 24.6355 4.63099 24.6664C4.42958 24.6782 4.22817 24.6433 4.04105 24.5643C3.58091 24.3848 2.8258 24.1992 2.3568 24.4374C1.26543 24.9851 2.46594 27.9496 3.60156 27.5102C3.90569 27.3581 4.15423 27.106 4.30947 26.7923C4.5425 26.3931 4.60444 26.0001 5.01149 25.7402C5.41854 25.4802 6.02617 25.406 6.43618 25.3039C7.01041 26.5425 7.75038 27.6887 8.63367 28.7077C8.49209 29.0357 8.04374 29.7753 7.77532 29.9207C7.59164 30.0153 7.38997 30.065 7.18539 30.0662C6.69575 30.0878 5.92884 30.2178 5.58373 30.6232C4.77552 31.5515 6.96122 33.8259 7.85201 32.9657C8.07763 32.7033 8.21539 32.3708 8.24432 32.0188C8.31511 31.5546 8.22957 31.1678 8.51273 30.7655C8.7959 30.3632 9.32979 30.0476 9.669 29.7908C10.6507 30.7131 11.7533 31.4832 12.9431 32.0776C12.9431 32.4365 12.7809 33.2968 12.5921 33.535C12.4577 33.6952 12.2902 33.8211 12.1025 33.9033C11.6571 34.1199 10.9963 34.5469 10.8253 35.0606C10.4212 36.2581 13.2676 37.468 13.7749 36.3169C13.89 35.9842 13.8972 35.6209 13.7956 35.2834C13.6923 34.8285 13.4711 34.5036 13.5861 34.0178C13.7012 33.5319 14.0758 33.0337 14.297 32.6624C15.5415 33.118 16.8417 33.3848 18.1581 33.4546C18.279 33.7919 18.4531 34.6459 18.3675 34.943C18.3008 35.1451 18.192 35.329 18.049 35.4814C17.7127 35.8589 17.2614 36.5181 17.288 37.0627C17.3529 38.3314 20.4205 38.3004 20.4706 37.041C20.4536 36.6877 20.3272 36.3499 20.1108 36.0786C19.8512 35.7011 19.5209 35.4876 19.456 34.9925C19.3911 34.4974 19.5533 33.8847 19.6211 33.4453C20.9383 33.3706 22.2385 33.0986 23.4822 32.6376C23.7153 32.9038 24.1843 33.6186 24.2108 33.9249C24.2225 34.1362 24.1893 34.3476 24.1135 34.5438C23.9424 35.0296 23.7625 35.8187 23.9866 36.3107C24.5087 37.4588 27.3374 36.2086 26.9186 35.0173C26.7769 34.6971 26.5384 34.4349 26.2402 34.2715C25.8597 34.027 25.4851 33.9621 25.2373 33.5288C24.9895 33.0956 24.9305 32.486 24.8302 32.0714C26.0193 31.4722 27.1208 30.698 28.1014 29.7722C28.4141 29.9238 29.1131 30.3911 29.2488 30.6727C29.3389 30.8654 29.3863 31.077 29.3875 31.2916C29.4052 31.8083 29.5261 32.6098 29.9125 32.9749C30.7974 33.8259 32.9713 31.5391 32.1513 30.6046C31.9079 30.3674 31.597 30.2207 31.2664 30.1869C30.8239 30.1126 30.4523 30.1869 30.0688 29.9022C29.6854 29.6175 29.3934 29.0481 29.1485 28.6892C30.032 27.6613 30.77 26.5056 31.3401 25.2575C31.6852 25.2729 32.4964 25.4338 32.7235 25.6288C32.8756 25.7716 32.9955 25.9481 33.0745 26.1455C33.278 26.6128 33.6851 27.306 34.1747 27.4885C35.3133 27.9156 36.4755 24.9356 35.3782 24.3941C35.0621 24.2738 34.7172 24.2651 34.396 24.3693C33.9624 24.4777 33.6497 24.7066 33.1866 24.586C32.7235 24.4653 32.2545 24.0723 31.8976 23.8371C32.3326 22.536 32.5869 21.176 32.6527 19.7989C32.9772 19.6751 33.7883 19.4894 34.0686 19.5885C34.2612 19.6585 34.4365 19.7726 34.5818 19.9227C34.9417 20.2754 35.5699 20.752 36.0861 20.7241C37.2955 20.6622 37.2866 17.4409 36.0861 17.3883C35.7489 17.4029 35.4255 17.5334 35.1658 17.7597C34.806 18.032 34.5995 18.3785 34.1305 18.4435C33.6615 18.5085 33.0775 18.3383 32.6557 18.2672C32.5898 16.8847 32.3345 15.5195 31.8976 14.2135C32.1513 13.969 32.8356 13.4801 33.1276 13.4522C33.3293 13.4411 33.5307 13.477 33.7175 13.5574C34.1777 13.7369 34.9328 13.9288 35.4018 13.6967C36.4961 13.1521 35.3133 10.1814 34.1747 10.6023C33.8702 10.7519 33.6206 11.0018 33.4639 11.314C33.2279 11.7132 33.1689 12.1031 32.753 12.3599C32.3371 12.6167 31.7413 12.6879 31.3342 12.7869C30.7677 11.538 30.0325 10.3811 29.1515 9.35212C29.296 9.02411 29.7414 8.29073 30.0157 8.14839C30.1996 8.05484 30.4013 8.00618 30.6057 8.00604C31.0983 7.98748 31.8652 7.8637 32.2132 7.45833C33.0273 6.53001 30.8534 4.24632 29.9597 5.10348C29.7309 5.36338 29.5899 5.69502 29.5585 6.04728C29.4877 6.50834 29.5585 6.89824 29.2842 7.28504C29.0099 7.67185 28.4642 7.99676 28.125 8.2505C27.1475 7.3233 26.049 6.54704 24.8627 5.94516C24.8627 5.58621 25.0308 4.72596 25.2196 4.49078C25.3558 4.33126 25.524 4.20549 25.7122 4.12254C26.1605 3.90903 26.8213 3.48819 26.9982 2.97451C27.4082 1.78007 24.5707 0.548486 24.0486 1.69961C23.9373 2.03936 23.9362 2.40819 24.0456 2.74862C24.1489 3.2035 24.3642 3.53151 24.2492 4.01424C24.1341 4.49697 23.7507 4.99517 23.5147 5.3696C22.2738 4.90412 20.9753 4.62897 19.6595 4.55267C19.5415 4.21538 19.3645 3.35513 19.4589 3.05806C19.5269 2.8568 19.6367 2.67394 19.7804 2.52273C20.1167 2.14521 20.5739 1.48919 20.5503 0.944573C20.506 -0.314857 17.4236 -0.314857 17.3676 0.944573ZM20.6122 7.98438C21.0371 7.98377 21.4525 8.11537 21.806 8.36253C22.1595 8.6097 22.4352 8.96131 22.5982 9.37289C22.7612 9.78447 22.8041 10.2375 22.7216 10.6747C22.6391 11.1119 22.4348 11.5136 22.1346 11.829C21.8344 12.1443 21.4518 12.3592 21.0352 12.4463C20.6186 12.5335 20.1867 12.4891 19.7941 12.3187C19.4016 12.1483 19.066 11.8595 18.8299 11.489C18.5938 11.1185 18.4678 10.6828 18.4678 10.2371C18.4678 9.6402 18.6937 9.06767 19.0957 8.64529C19.4978 8.22291 20.0432 7.9852 20.6122 7.98438ZM26.0514 12.6013C26.16 12.6013 26.2662 12.6351 26.3565 12.6985C26.4468 12.7619 26.5171 12.8519 26.5585 12.9573C26.6 13.0626 26.6107 13.1785 26.5893 13.2903C26.5679 13.402 26.5153 13.5045 26.4383 13.5849C26.3613 13.6653 26.2632 13.7198 26.1566 13.7417C26.05 13.7636 25.9396 13.7517 25.8394 13.7077C25.7392 13.6636 25.6537 13.5894 25.5938 13.4943C25.5339 13.3993 25.5022 13.2877 25.5028 13.1737C25.5035 13.0216 25.5617 12.876 25.6645 12.7687C25.7673 12.6615 25.9064 12.6013 26.0514 12.6013ZM21.1963 28.881C21.3048 28.881 21.4108 28.9148 21.5011 28.978C21.5913 29.0413 21.6616 29.1312 21.7031 29.2363C21.7447 29.3415 21.7555 29.4572 21.7344 29.5689C21.7132 29.6805 21.6609 29.7831 21.5842 29.8636C21.5075 29.9441 21.4097 29.9989 21.3033 30.0211C21.1969 30.0433 21.0866 30.0319 20.9863 29.9883C20.8861 29.9448 20.8004 29.871 20.7401 29.7763C20.6798 29.6817 20.6476 29.5704 20.6476 29.4566C20.6476 29.3039 20.7054 29.1575 20.8083 29.0496C20.9112 28.9417 21.0507 28.881 21.1963 28.881ZM12.0317 25.1956C12.1402 25.1956 12.2463 25.2293 12.3365 25.2926C12.4267 25.3558 12.497 25.4457 12.5385 25.5509C12.5801 25.656 12.5909 25.7718 12.5698 25.8834C12.5486 25.9951 12.4963 26.0976 12.4196 26.1781C12.3429 26.2586 12.2451 26.3134 12.1387 26.3356C12.0323 26.3578 11.922 26.3464 11.8217 26.3029C11.7215 26.2593 11.6358 26.1855 11.5755 26.0909C11.5152 25.9962 11.483 25.885 11.483 25.7711C11.4838 25.6187 11.5419 25.4728 11.6446 25.365C11.7473 25.2573 11.8864 25.1964 12.0317 25.1956ZM25.9865 24.0909C26.095 24.0909 26.2011 24.1246 26.2913 24.1879C26.3815 24.2511 26.4518 24.341 26.4934 24.4462C26.5349 24.5513 26.5458 24.6671 26.5246 24.7787C26.5034 24.8903 26.4512 24.9929 26.3744 25.0734C26.2977 25.1539 26.2 25.2087 26.0935 25.2309C25.9871 25.2531 25.8768 25.2417 25.7765 25.1982C25.6763 25.1546 25.5906 25.0808 25.5303 24.9862C25.47 24.8915 25.4379 24.7803 25.4379 24.6664C25.4379 24.5138 25.4957 24.3674 25.5986 24.2594C25.7014 24.1515 25.841 24.0909 25.9865 24.0909ZM23.143 25.2791C23.344 25.2785 23.5405 25.3405 23.7079 25.4572C23.8752 25.5739 24.0057 25.7402 24.0829 25.9348C24.16 26.1294 24.1804 26.3437 24.1413 26.5505C24.1022 26.7573 24.0055 26.9472 23.8635 27.0963C23.7214 27.2453 23.5403 27.3468 23.3432 27.3878C23.1461 27.4287 22.9418 27.4074 22.7563 27.3264C22.5708 27.2455 22.4123 27.1086 22.3011 26.9331C22.1898 26.7575 22.1307 26.5513 22.1313 26.3405C22.1321 26.0593 22.2389 25.7898 22.4285 25.5909C22.6181 25.392 22.8749 25.2799 23.143 25.2791ZM17.0992 23.7319C17.3751 23.7319 17.6449 23.8177 17.8743 23.9786C18.1037 24.1394 18.2826 24.368 18.3882 24.6354C18.4938 24.9029 18.5214 25.1972 18.4676 25.4811C18.4137 25.765 18.2809 26.0258 18.0857 26.2305C17.8906 26.4352 17.642 26.5746 17.3714 26.6311C17.1007 26.6876 16.8202 26.6586 16.5653 26.5478C16.3103 26.437 16.0924 26.2494 15.9391 26.0087C15.7858 25.768 15.704 25.485 15.704 25.1956C15.704 24.8074 15.851 24.4351 16.1126 24.1606C16.3743 23.8861 16.7292 23.7319 17.0992 23.7319ZM17.0756 19.737C17.1843 19.7364 17.2908 19.7697 17.3815 19.8327C17.4722 19.8957 17.5429 19.9856 17.5848 20.0909C17.6267 20.1962 17.6378 20.3121 17.6168 20.4241C17.5957 20.536 17.5434 20.6389 17.4665 20.7195C17.3896 20.8002 17.2915 20.8551 17.1848 20.8772C17.0781 20.8993 16.9676 20.8877 16.8672 20.8437C16.7668 20.7998 16.6812 20.7255 16.6211 20.6304C16.5611 20.5353 16.5293 20.4236 16.5299 20.3095C16.5299 20.2343 16.544 20.1598 16.5714 20.0904C16.5989 20.0209 16.6391 19.9578 16.6897 19.9047C16.7404 19.8515 16.8006 19.8093 16.8668 19.7806C16.933 19.7518 17.0039 19.737 17.0756 19.737ZM8.32691 13.2016C8.43542 13.2016 8.54149 13.2353 8.63171 13.2986C8.72193 13.3618 8.79225 13.4517 8.83378 13.5569C8.8753 13.6621 8.88617 13.7778 8.865 13.8894C8.84383 14.0011 8.79158 14.1036 8.71485 14.1841C8.63812 14.2646 8.54036 14.3194 8.43394 14.3416C8.32751 14.3639 8.2172 14.3525 8.11695 14.3089C8.0167 14.2653 7.93102 14.1916 7.87073 14.0969C7.81045 14.0023 7.77827 13.891 7.77827 13.7771C7.77827 13.6245 7.83607 13.4781 7.93896 13.3702C8.04185 13.2622 8.1814 13.2016 8.32691 13.2016ZM14.7454 14.5384C14.854 14.5384 14.9602 14.5722 15.0505 14.6356C15.1408 14.699 15.2111 14.789 15.2525 14.8944C15.2939 14.9997 15.3046 15.1156 15.2832 15.2274C15.2618 15.3391 15.2093 15.4416 15.1322 15.522C15.0552 15.6024 14.9572 15.657 14.8506 15.6788C14.744 15.7007 14.6335 15.6888 14.5334 15.6448C14.4332 15.6008 14.3477 15.5265 14.2877 15.4314C14.2278 15.3364 14.1961 15.2248 14.1967 15.1108C14.1967 15.0354 14.2109 14.9607 14.2385 14.891C14.2661 14.8214 14.3066 14.7581 14.3576 14.7049C14.4086 14.6517 14.4691 14.6096 14.5356 14.5811C14.6022 14.5525 14.6735 14.538 14.7454 14.5384ZM19.5798 15.1573C19.7772 15.1573 19.97 15.2187 20.134 15.3337C20.2981 15.4488 20.4258 15.6123 20.5012 15.8036C20.5766 15.9949 20.5962 16.2054 20.5574 16.4084C20.5187 16.6113 20.4235 16.7977 20.2838 16.9438C20.144 17.09 19.9661 17.1894 19.7725 17.2294C19.5789 17.2694 19.3784 17.2482 19.1963 17.1686C19.0141 17.0889 18.8586 16.9544 18.7494 16.782C18.6403 16.6096 18.5823 16.4071 18.5829 16.2001C18.5836 15.9232 18.689 15.658 18.8759 15.4625C19.0628 15.267 19.3159 15.1573 19.5798 15.1573ZM28.9657 15.5193C29.1628 15.5193 29.3556 15.5806 29.5195 15.6956C29.6835 15.8105 29.8113 15.9738 29.8867 16.165C29.9622 16.3561 29.9819 16.5664 29.9435 16.7693C29.905 16.9722 29.8101 17.1585 29.6706 17.3048C29.5312 17.4511 29.3535 17.5507 29.1602 17.591C28.9668 17.6314 28.7663 17.6107 28.5841 17.5315C28.4019 17.4524 28.2462 17.3183 28.1367 17.1463C28.0271 16.9743 27.9687 16.7721 27.9687 16.5652C27.9687 16.2878 28.0737 16.0218 28.2607 15.8256C28.4476 15.6295 28.7012 15.5193 28.9657 15.5193ZM24.0722 17.4224C24.3425 17.4218 24.6069 17.5052 24.8321 17.662C25.0573 17.8189 25.2332 18.0422 25.3376 18.3038C25.4419 18.5653 25.4701 18.8535 25.4186 19.1319C25.3671 19.4103 25.2381 19.6664 25.048 19.868C24.8579 20.0696 24.6152 20.2076 24.3504 20.2646C24.0856 20.3217 23.8106 20.2952 23.5602 20.1885C23.3097 20.0818 23.095 19.8997 22.9431 19.6652C22.7911 19.4306 22.7088 19.1541 22.7065 18.8706C22.7065 18.4903 22.8503 18.1256 23.1063 17.8564C23.3623 17.5872 23.7097 17.4356 24.0722 17.4348V17.4224ZM10.3946 17.3883C10.8194 17.3883 11.2347 17.5205 11.5879 17.7682C11.9411 18.0159 12.2163 18.3679 12.3788 18.7797C12.5412 19.1915 12.5836 19.6446 12.5005 20.0817C12.4174 20.5188 12.2126 20.9202 11.912 21.2351C11.6114 21.55 11.2285 21.7643 10.8117 21.8509C10.395 21.9375 9.96314 21.8924 9.57081 21.7214C9.17849 21.5505 8.84332 21.2612 8.60772 20.8904C8.37213 20.5195 8.24668 20.0837 8.24727 19.638C8.24805 19.0411 8.47463 18.4689 8.87725 18.0471C9.27987 17.6252 9.82561 17.3883 10.3946 17.3883ZM13.8929 9.86889C14.1691 9.86827 14.4393 9.95368 14.6691 10.1143C14.899 10.2749 15.0783 10.5034 15.1843 10.771C15.2902 11.0386 15.3181 11.3331 15.2644 11.6173C15.2106 11.9015 15.0777 12.1626 14.8824 12.3675C14.6871 12.5724 14.4382 12.7119 14.1673 12.7682C13.8964 12.8246 13.6156 12.7954 13.3606 12.6842C13.1055 12.573 12.8877 12.385 12.7346 12.1438C12.5815 11.9026 12.5001 11.6192 12.5007 11.3295C12.5007 10.9421 12.6474 10.5706 12.9084 10.2967C13.1695 10.0228 13.5237 9.86889 13.8929 9.86889Z" fill="#E67C73"/>
</svg>
