<svg width="33" height="33" viewBox="0 0 33 33" fill="none" xmlns="http://www.w3.org/2000/svg">
<path d="M3.92358 20.106C5.26636 19.9917 6.1875 19.2087 6.81592 18.0773C7.44434 16.9459 7.78809 15.416 7.95728 13.8777C8.0459 13.0668 8.09961 12.2057 8.15332 11.3697C8.42188 7.12835 8.69043 2.5526 13.3445 0.604702C14.4462 0.140085 15.6347 -0.0610955 16.8216 0.0160924C18.0085 0.0932804 19.1635 0.446855 20.2007 1.05057C21.7109 1.95642 22.8802 3.36724 23.5173 5.05226C23.8628 5.95634 24.0826 6.90685 24.1699 7.87518V7.8919C24.1699 10.4529 24.5513 14.0477 25.6228 16.6839C26.3936 18.5789 27.5027 19.975 29.0791 20.106C29.1102 20.1088 29.139 20.124 29.1596 20.1485C29.1801 20.1729 29.1907 20.2046 29.1892 20.2369V20.276C28.8857 21.1426 27.5 21.7864 25.8591 22.0706C28.2976 22.6781 29.9841 23.4054 31.1201 24.7068C32.4978 26.2841 33 28.6305 33 32.5318C33 32.6555 32.9528 32.7742 32.8688 32.8619C32.7848 32.9496 32.6707 32.9993 32.5515 33H0.448486C0.329294 32.9993 0.215225 32.9496 0.131194 32.8619C0.0471631 32.7742 -2.11153e-06 32.6555 0 32.5318C0 28.7336 0.488769 26.3844 1.78857 24.7932C2.86279 23.4834 4.4419 22.7338 6.72461 22.1514C5.2959 21.8198 4.11694 21.1315 3.82153 20.2648C3.81123 20.2341 3.81309 20.2005 3.82668 20.1712C3.84028 20.142 3.8645 20.1195 3.89404 20.1088H3.92358V20.106ZM20.3914 21.4074C20.2965 21.3461 20.2069 21.282 20.1228 21.2151C19.8323 20.9915 19.5997 20.6966 19.446 20.3568C18.5753 20.9866 17.5344 21.3135 16.4731 21.2903C15.2757 21.2996 14.1163 20.8546 13.2129 20.0391C13.0571 20.6995 12.7993 21.4324 12.469 21.6275C11.5908 22.1848 10.1782 22.4189 9.14697 22.5945C8.8999 22.6363 8.67432 22.6725 8.47559 22.7143C8.14795 22.7812 7.83105 22.8481 7.52759 22.9177C10.4521 25.8689 13.3982 27.5158 16.363 27.6105C19.3279 27.7053 22.3706 26.2172 25.4805 22.9373C25.0293 22.8258 24.5486 22.7199 24.041 22.614L23.9685 22.5973C23.0769 22.4161 21.4495 22.0762 20.4236 21.4297L20.3914 21.4074ZM12.042 16.6923C11.9661 16.2551 11.9221 15.8126 11.9104 15.3686C11.9076 15.338 11.9076 15.3072 11.9104 15.2766L10.7583 13.326C10.8617 14.0712 11.0765 14.7951 11.3948 15.4717C11.5022 15.6974 11.6096 15.9176 11.7224 16.1266C11.8352 16.3356 11.9211 16.4916 12.0259 16.6672L12.042 16.6923ZM10.6804 12.0692L12.4341 14.9339C13.7173 14.3965 15.0798 14.0911 16.4624 14.031C17.8519 13.9942 19.2306 14.2918 20.4907 14.9004L22.4592 11.7961V11.6957C22.4566 10.7785 22.3666 9.86371 22.1907 8.96478C21.3223 8.52257 20.5896 7.83849 20.0745 6.98902C19.5413 6.10835 19.1495 5.14367 18.9143 4.13265C18.1355 7.58815 14.7839 8.39351 12.469 8.94806C11.8559 9.0657 11.257 9.25259 10.6831 9.5054C10.6831 9.91225 10.6831 10.3414 10.6616 10.7371C10.6616 11.2081 10.6375 11.6567 10.6455 12.0942L10.6804 12.0692ZM22.4109 12.9748L21.0225 15.2209C21.0235 15.2292 21.0235 15.2377 21.0225 15.246C21.0365 15.2813 21.0438 15.3192 21.0439 15.3575C21.0495 15.7414 21.0271 16.1252 20.9768 16.5056C21.0842 16.3551 21.189 16.2018 21.291 16.0486C21.6467 15.5005 21.9541 14.9204 22.2095 14.3152C22.2984 13.8722 22.3656 13.4249 22.4109 12.9748ZM15.1411 10.2272C15.6245 10.4166 15.7266 10.8347 15.4553 10.9907C15.1384 11.1746 14.741 10.9015 14.4321 10.7984C13.6265 10.5198 12.665 10.5002 11.9695 10.9517C11.7675 11.0888 11.5778 11.2445 11.4028 11.4171C11.47 11.156 11.5869 10.9115 11.7466 10.6981C12.4475 9.78407 14.2065 9.72833 15.1411 10.2272ZM17.8616 10.2272C17.3782 10.4166 17.2761 10.8347 17.5447 10.9907C17.8643 11.1746 18.2617 10.9015 18.5706 10.7984C19.3762 10.5198 20.335 10.5002 21.0332 10.9517C21.2352 11.0888 21.4249 11.2445 21.5999 11.4171C21.5316 11.1564 21.4148 10.9122 21.2561 10.6981C20.5552 9.78407 18.7961 9.72833 17.8616 10.2272ZM12.512 12.0274C12.4794 12.0157 12.4501 11.9958 12.4266 11.9696C12.4032 11.9433 12.3864 11.9115 12.3777 11.8769C12.3591 11.8201 12.3615 11.7582 12.3843 11.7032C12.4071 11.6481 12.4488 11.6038 12.5012 11.5787C13.2783 11.2638 14.1411 11.2638 14.9182 11.5787C14.969 11.6041 15.0092 11.6478 15.0314 11.7015C15.0536 11.7553 15.0563 11.8156 15.0391 11.8713C15.0332 11.8989 15.0219 11.9249 15.0059 11.9477C14.9899 11.9706 14.9696 11.9898 14.9462 12.0041C14.9228 12.0185 14.8968 12.0277 14.8698 12.0312C14.8428 12.0348 14.8154 12.0325 14.7893 12.0246C14.6602 11.9748 14.5284 11.9329 14.3945 11.8992C14.4075 11.9501 14.4139 12.0026 14.4133 12.0552C14.4112 12.1393 14.3915 12.2219 14.3554 12.2971C14.3193 12.3724 14.2678 12.4386 14.2045 12.4911C14.1411 12.5436 14.0675 12.581 13.9888 12.6009C13.91 12.6207 13.828 12.6225 13.7486 12.606C13.6691 12.5895 13.5941 12.5552 13.5288 12.5054C13.4634 12.4557 13.4094 12.3917 13.3703 12.318C13.3313 12.2443 13.3083 12.1626 13.3029 12.0787C13.2975 11.9948 13.3099 11.9107 13.3391 11.8323C13.1352 11.8606 12.9346 11.9101 12.7402 11.98C12.6713 12.0216 12.591 12.0382 12.512 12.0274ZM18.7532 11.8824C18.736 11.9383 18.727 11.9966 18.7263 12.0552C18.7361 12.2016 18.7991 12.3388 18.9025 12.4389C19.0059 12.539 19.1421 12.5947 19.2836 12.5947C19.425 12.5947 19.5612 12.539 19.6646 12.4389C19.768 12.3388 19.831 12.2016 19.8408 12.0552C19.8406 11.9665 19.8214 11.8789 19.7844 11.7988C20.0337 11.8284 20.2793 11.8844 20.5176 11.966C20.5441 11.9739 20.5719 11.9759 20.5992 11.9718C20.6264 11.9677 20.6526 11.9578 20.6759 11.9425C20.6992 11.9273 20.7192 11.9071 20.7345 11.8833C20.7498 11.8595 20.76 11.8326 20.7646 11.8044C20.7772 11.7487 20.7703 11.6901 20.7453 11.6391C20.7202 11.5881 20.6785 11.5479 20.6277 11.5257C20.2396 11.3919 19.8335 11.3232 19.4246 11.3223C19.0207 11.3235 18.6197 11.3931 18.2376 11.5285C18.1867 11.5507 18.145 11.5909 18.12 11.6419C18.0949 11.6929 18.088 11.7515 18.1006 11.8072C18.1056 11.8348 18.116 11.8611 18.1313 11.8843C18.1465 11.9076 18.1663 11.9273 18.1892 11.9422C18.2122 11.9571 18.2379 11.967 18.2647 11.9711C18.2915 11.9752 18.3188 11.9735 18.345 11.966C18.4766 11.9215 18.6135 11.8852 18.7371 11.8546C18.7747 11.8546 18.7666 11.8379 18.7532 11.8824Z" fill="url(#paint0_linear_3405_24975)"/>
<defs>
<linearGradient id="paint0_linear_3405_24975" x1="16.5" y1="0" x2="16.5" y2="33" gradientUnits="userSpaceOnUse">
<stop stop-color="#696690"/>
<stop offset="1" stop-color="#524F73"/>
</linearGradient>
</defs>
</svg>
